<mxfile host="www.draw.io" modified="2020-02-20T04:09:05.823Z" agent="Mozilla/5.0 (Macintosh; Intel Mac OS X 10_12_3) AppleWebKit/537.36 (KHTML, like Gecko) Chrome/79.0.3945.130 Safari/537.36" etag="7Jnivknet2xyJpsHgHP4" version="12.7.1" type="github">
  <diagram id="PZuuEMWm3O0PsAND5FFg" name="Page-1">
    <mxGraphModel dx="2381" dy="888" grid="1" gridSize="10" guides="1" tooltips="1" connect="1" arrows="1" fold="1" page="1" pageScale="1" pageWidth="827" pageHeight="1169" math="0" shadow="0">
      <root>
        <mxCell id="0" />
        <mxCell id="1" parent="0" />
        <mxCell id="vk6pO8AkL0Hi04yZMvHO-626" value="" style="group" vertex="1" connectable="0" parent="1">
          <mxGeometry x="-360" y="1530" width="1230" height="800" as="geometry" />
        </mxCell>
        <mxCell id="vk6pO8AkL0Hi04yZMvHO-624" value="" style="rounded=0;whiteSpace=wrap;html=1;shadow=1;glass=0;comic=0;strokeColor=#000000;fillColor=#ffffff;" vertex="1" parent="vk6pO8AkL0Hi04yZMvHO-626">
          <mxGeometry width="1230" height="800" as="geometry" />
        </mxCell>
        <mxCell id="vk6pO8AkL0Hi04yZMvHO-625" value="&lt;font style=&quot;font-size: 21px&quot;&gt;&lt;b&gt;一次性添加撤销git文件操作命令&lt;/b&gt;&lt;/font&gt;" style="text;html=1;align=center;verticalAlign=middle;resizable=0;points=[];autosize=1;strokeColor=#000000;shadow=1;" vertex="1" parent="vk6pO8AkL0Hi04yZMvHO-626">
          <mxGeometry y="3" width="310" height="20" as="geometry" />
        </mxCell>
        <mxCell id="vk6pO8AkL0Hi04yZMvHO-145" value="" style="group" vertex="1" connectable="0" parent="1">
          <mxGeometry x="-297" y="460" width="1420" height="390" as="geometry" />
        </mxCell>
        <mxCell id="vk6pO8AkL0Hi04yZMvHO-386" value="" style="group" vertex="1" connectable="0" parent="vk6pO8AkL0Hi04yZMvHO-145">
          <mxGeometry x="70" y="50" width="960" height="340" as="geometry" />
        </mxCell>
        <mxCell id="vk6pO8AkL0Hi04yZMvHO-196" value="" style="group" vertex="1" connectable="0" parent="vk6pO8AkL0Hi04yZMvHO-386">
          <mxGeometry width="960" height="340" as="geometry" />
        </mxCell>
        <mxCell id="vk6pO8AkL0Hi04yZMvHO-195" value="" style="group" vertex="1" connectable="0" parent="vk6pO8AkL0Hi04yZMvHO-196">
          <mxGeometry width="960" height="340" as="geometry" />
        </mxCell>
        <mxCell id="vk6pO8AkL0Hi04yZMvHO-156" value="" style="group" vertex="1" connectable="0" parent="vk6pO8AkL0Hi04yZMvHO-195">
          <mxGeometry x="-10" width="610" height="220" as="geometry" />
        </mxCell>
        <mxCell id="vk6pO8AkL0Hi04yZMvHO-385" value="" style="group" vertex="1" connectable="0" parent="vk6pO8AkL0Hi04yZMvHO-195">
          <mxGeometry x="-90.00000000000001" y="100" width="980" height="240" as="geometry" />
        </mxCell>
        <mxCell id="vk6pO8AkL0Hi04yZMvHO-348" value="" style="group" vertex="1" connectable="0" parent="vk6pO8AkL0Hi04yZMvHO-385">
          <mxGeometry width="630" height="240" as="geometry" />
        </mxCell>
        <mxCell id="vk6pO8AkL0Hi04yZMvHO-349" value=".git文件" style="text;html=1;align=center;verticalAlign=middle;resizable=0;points=[];autosize=1;" vertex="1" parent="vk6pO8AkL0Hi04yZMvHO-348">
          <mxGeometry x="259.29268720406856" y="80" width="60" height="20" as="geometry" />
        </mxCell>
        <mxCell id="vk6pO8AkL0Hi04yZMvHO-350" value="" style="group" vertex="1" connectable="0" parent="vk6pO8AkL0Hi04yZMvHO-348">
          <mxGeometry width="630" height="240" as="geometry" />
        </mxCell>
        <mxCell id="vk6pO8AkL0Hi04yZMvHO-351" value="" style="group" vertex="1" connectable="0" parent="vk6pO8AkL0Hi04yZMvHO-350">
          <mxGeometry width="630" height="240" as="geometry" />
        </mxCell>
        <mxCell id="vk6pO8AkL0Hi04yZMvHO-352" value="" style="rounded=0;whiteSpace=wrap;html=1;fillColor=#f9f7ed;strokeColor=#36393d;" vertex="1" parent="vk6pO8AkL0Hi04yZMvHO-351">
          <mxGeometry y="-60" width="630" height="300" as="geometry" />
        </mxCell>
        <mxCell id="vk6pO8AkL0Hi04yZMvHO-353" value="" style="rounded=0;whiteSpace=wrap;html=1;fillColor=#eeeeee;strokeColor=#36393d;" vertex="1" parent="vk6pO8AkL0Hi04yZMvHO-351">
          <mxGeometry x="230.63" width="309.37" height="210" as="geometry" />
        </mxCell>
        <mxCell id="vk6pO8AkL0Hi04yZMvHO-354" value=".git文件" style="text;html=1;align=center;verticalAlign=middle;resizable=0;points=[];autosize=1;strokeColor=#000000;shadow=1;" vertex="1" parent="vk6pO8AkL0Hi04yZMvHO-351">
          <mxGeometry x="230.62983606557376" y="-0.002727272727270247" width="60" height="20" as="geometry" />
        </mxCell>
        <mxCell id="vk6pO8AkL0Hi04yZMvHO-355" value="&lt;b&gt;项目文件夹&lt;/b&gt;" style="text;html=1;align=center;verticalAlign=middle;resizable=0;points=[];autosize=1;shadow=1;fillColor=none;strokeColor=#000000;" vertex="1" parent="vk6pO8AkL0Hi04yZMvHO-351">
          <mxGeometry y="-60" width="80" height="20" as="geometry" />
        </mxCell>
        <mxCell id="vk6pO8AkL0Hi04yZMvHO-356" value="" style="group;fillColor=#cdeb8b;strokeColor=#36393d;" vertex="1" connectable="0" parent="vk6pO8AkL0Hi04yZMvHO-351">
          <mxGeometry x="365.9" y="50.43" width="154.1" height="149.57" as="geometry" />
        </mxCell>
        <mxCell id="vk6pO8AkL0Hi04yZMvHO-357" value="" style="rounded=0;whiteSpace=wrap;html=1;fillColor=#cdeb8b;strokeColor=#36393d;" vertex="1" parent="vk6pO8AkL0Hi04yZMvHO-356">
          <mxGeometry width="154.09999999999997" height="149.57" as="geometry" />
        </mxCell>
        <mxCell id="vk6pO8AkL0Hi04yZMvHO-358" value="git仓库代码区" style="text;html=1;align=center;verticalAlign=middle;resizable=0;points=[];autosize=1;strokeColor=#000000;shadow=1;" vertex="1" parent="vk6pO8AkL0Hi04yZMvHO-356">
          <mxGeometry width="90" height="20" as="geometry" />
        </mxCell>
        <mxCell id="vk6pO8AkL0Hi04yZMvHO-360" value="" style="group;fillColor=#ffff88;strokeColor=#36393d;" vertex="1" connectable="0" parent="vk6pO8AkL0Hi04yZMvHO-351">
          <mxGeometry x="249.99630583333334" y="50.43000000000001" width="88.66369416666664" height="145" as="geometry" />
        </mxCell>
        <mxCell id="vk6pO8AkL0Hi04yZMvHO-361" value="缓存区" style="text;html=1;align=center;verticalAlign=middle;resizable=0;points=[];autosize=1;strokeColor=#000000;shadow=1;" vertex="1" parent="vk6pO8AkL0Hi04yZMvHO-360">
          <mxGeometry width="50" height="20" as="geometry" />
        </mxCell>
        <mxCell id="vk6pO8AkL0Hi04yZMvHO-362" value="" style="group" vertex="1" connectable="0" parent="vk6pO8AkL0Hi04yZMvHO-360">
          <mxGeometry x="19.33369416666666" y="39.56999999999999" width="50" height="90" as="geometry" />
        </mxCell>
        <mxCell id="vk6pO8AkL0Hi04yZMvHO-363" value="" style="group" vertex="1" connectable="0" parent="vk6pO8AkL0Hi04yZMvHO-362">
          <mxGeometry width="50" height="90" as="geometry" />
        </mxCell>
        <mxCell id="vk6pO8AkL0Hi04yZMvHO-364" value="代码1" style="group;fillColor=#ffcccc;strokeColor=#36393d;" vertex="1" connectable="0" parent="vk6pO8AkL0Hi04yZMvHO-363">
          <mxGeometry width="50" height="30" as="geometry" />
        </mxCell>
        <mxCell id="vk6pO8AkL0Hi04yZMvHO-365" value="代码2" style="group;fillColor=#ffcccc;strokeColor=#36393d;" vertex="1" connectable="0" parent="vk6pO8AkL0Hi04yZMvHO-363">
          <mxGeometry y="30" width="50" height="30" as="geometry" />
        </mxCell>
        <mxCell id="vk6pO8AkL0Hi04yZMvHO-366" value="代码3" style="group;fillColor=#ffcccc;strokeColor=#36393d;" vertex="1" connectable="0" parent="vk6pO8AkL0Hi04yZMvHO-363">
          <mxGeometry y="60" width="50" height="30" as="geometry" />
        </mxCell>
        <mxCell id="vk6pO8AkL0Hi04yZMvHO-381" value="" style="endArrow=classic;html=1;" edge="1" parent="vk6pO8AkL0Hi04yZMvHO-351">
          <mxGeometry width="50" height="50" relative="1" as="geometry">
            <mxPoint x="420" y="130" as="sourcePoint" />
            <mxPoint x="340" y="130" as="targetPoint" />
          </mxGeometry>
        </mxCell>
        <mxCell id="vk6pO8AkL0Hi04yZMvHO-382" value="" style="endArrow=classic;html=1;entryX=1;entryY=0.5;entryDx=0;entryDy=0;" edge="1" parent="vk6pO8AkL0Hi04yZMvHO-351" target="vk6pO8AkL0Hi04yZMvHO-368">
          <mxGeometry width="50" height="50" relative="1" as="geometry">
            <mxPoint x="270" y="130" as="sourcePoint" />
            <mxPoint x="170" y="127" as="targetPoint" />
          </mxGeometry>
        </mxCell>
        <mxCell id="vk6pO8AkL0Hi04yZMvHO-367" value="" style="group" vertex="1" connectable="0" parent="vk6pO8AkL0Hi04yZMvHO-351">
          <mxGeometry x="30.49" width="140" height="211.09" as="geometry" />
        </mxCell>
        <mxCell id="vk6pO8AkL0Hi04yZMvHO-368" value="" style="rounded=0;whiteSpace=wrap;html=1;fillColor=#cdeb8b;strokeColor=#36393d;" vertex="1" parent="vk6pO8AkL0Hi04yZMvHO-367">
          <mxGeometry y="40" width="140" height="171.09" as="geometry" />
        </mxCell>
        <mxCell id="vk6pO8AkL0Hi04yZMvHO-369" value="工作区" style="text;html=1;align=center;verticalAlign=middle;resizable=0;points=[];autosize=1;strokeColor=#000000;shadow=1;rounded=0;glass=0;comic=0;" vertex="1" parent="vk6pO8AkL0Hi04yZMvHO-367">
          <mxGeometry y="40" width="50" height="20" as="geometry" />
        </mxCell>
        <mxCell id="vk6pO8AkL0Hi04yZMvHO-370" value="" style="group" vertex="1" connectable="0" parent="vk6pO8AkL0Hi04yZMvHO-367">
          <mxGeometry x="45" y="91.08999999999999" width="50" height="90" as="geometry" />
        </mxCell>
        <mxCell id="vk6pO8AkL0Hi04yZMvHO-371" value="" style="group" vertex="1" connectable="0" parent="vk6pO8AkL0Hi04yZMvHO-370">
          <mxGeometry width="50" height="90" as="geometry" />
        </mxCell>
        <mxCell id="vk6pO8AkL0Hi04yZMvHO-372" value="代码1" style="group;fillColor=#ffcccc;strokeColor=#36393d;" vertex="1" connectable="0" parent="vk6pO8AkL0Hi04yZMvHO-371">
          <mxGeometry width="50" height="30" as="geometry" />
        </mxCell>
        <mxCell id="vk6pO8AkL0Hi04yZMvHO-373" value="代码2" style="group;fillColor=#ffcccc;strokeColor=#36393d;" vertex="1" connectable="0" parent="vk6pO8AkL0Hi04yZMvHO-371">
          <mxGeometry y="30" width="50" height="30" as="geometry" />
        </mxCell>
        <mxCell id="vk6pO8AkL0Hi04yZMvHO-374" value="代码3" style="group;fillColor=#ffcccc;strokeColor=#36393d;" vertex="1" connectable="0" parent="vk6pO8AkL0Hi04yZMvHO-371">
          <mxGeometry y="60" width="50" height="30" as="geometry" />
        </mxCell>
        <mxCell id="vk6pO8AkL0Hi04yZMvHO-376" value="" style="group" vertex="1" connectable="0" parent="vk6pO8AkL0Hi04yZMvHO-385">
          <mxGeometry x="420" y="90" width="50" height="90" as="geometry" />
        </mxCell>
        <mxCell id="vk6pO8AkL0Hi04yZMvHO-377" value="代码1" style="group;fillColor=#ffcccc;strokeColor=#36393d;" vertex="1" connectable="0" parent="vk6pO8AkL0Hi04yZMvHO-376">
          <mxGeometry width="50" height="30" as="geometry" />
        </mxCell>
        <mxCell id="vk6pO8AkL0Hi04yZMvHO-378" value="代码2" style="group;fillColor=#ffcccc;strokeColor=#36393d;" vertex="1" connectable="0" parent="vk6pO8AkL0Hi04yZMvHO-376">
          <mxGeometry y="30" width="50" height="30" as="geometry" />
        </mxCell>
        <mxCell id="vk6pO8AkL0Hi04yZMvHO-379" value="代码3" style="group;fillColor=#ffcccc;strokeColor=#36393d;" vertex="1" connectable="0" parent="vk6pO8AkL0Hi04yZMvHO-376">
          <mxGeometry y="60" width="50" height="30" as="geometry" />
        </mxCell>
        <mxCell id="vk6pO8AkL0Hi04yZMvHO-241" value="" style="group" vertex="1" connectable="0" parent="vk6pO8AkL0Hi04yZMvHO-385">
          <mxGeometry x="760" y="50" width="220" height="145" as="geometry" />
        </mxCell>
        <mxCell id="vk6pO8AkL0Hi04yZMvHO-242" value="" style="rounded=0;whiteSpace=wrap;html=1;fillColor=#FF6B21;" vertex="1" parent="vk6pO8AkL0Hi04yZMvHO-241">
          <mxGeometry width="220" height="145" as="geometry" />
        </mxCell>
        <mxCell id="vk6pO8AkL0Hi04yZMvHO-243" value="项目代码仓库" style="text;html=1;align=center;verticalAlign=middle;resizable=0;points=[];autosize=1;strokeColor=#000000;shadow=1;" vertex="1" parent="vk6pO8AkL0Hi04yZMvHO-241">
          <mxGeometry width="90" height="20" as="geometry" />
        </mxCell>
        <mxCell id="vk6pO8AkL0Hi04yZMvHO-244" value="开发人员push代码" style="rounded=0;whiteSpace=wrap;html=1;fillColor=#cdeb8b;strokeColor=#36393d;" vertex="1" parent="vk6pO8AkL0Hi04yZMvHO-241">
          <mxGeometry x="50" y="51.88" width="137.5" height="41.25" as="geometry" />
        </mxCell>
        <mxCell id="vk6pO8AkL0Hi04yZMvHO-380" value="" style="endArrow=classic;html=1;exitX=0;exitY=0.5;exitDx=0;exitDy=0;entryX=1;entryY=0.5;entryDx=0;entryDy=0;" edge="1" parent="vk6pO8AkL0Hi04yZMvHO-385" source="vk6pO8AkL0Hi04yZMvHO-244" target="vk6pO8AkL0Hi04yZMvHO-357">
          <mxGeometry width="50" height="50" relative="1" as="geometry">
            <mxPoint x="660" y="160" as="sourcePoint" />
            <mxPoint x="710" y="110" as="targetPoint" />
          </mxGeometry>
        </mxCell>
        <mxCell id="vk6pO8AkL0Hi04yZMvHO-392" value="git pull" style="text;html=1;align=center;verticalAlign=middle;resizable=0;points=[];autosize=1;strokeColor=#000000;" vertex="1" parent="vk6pO8AkL0Hi04yZMvHO-385">
          <mxGeometry x="657" y="100" width="50" height="20" as="geometry" />
        </mxCell>
        <mxCell id="vk6pO8AkL0Hi04yZMvHO-225" value="" style="group" vertex="1" connectable="0" parent="1">
          <mxGeometry x="-240" y="940" width="640" height="480" as="geometry" />
        </mxCell>
        <mxCell id="vk6pO8AkL0Hi04yZMvHO-224" value="" style="group" vertex="1" connectable="0" parent="vk6pO8AkL0Hi04yZMvHO-225">
          <mxGeometry width="640" height="480" as="geometry" />
        </mxCell>
        <mxCell id="vk6pO8AkL0Hi04yZMvHO-87" value="小黄" style="rounded=0;whiteSpace=wrap;html=1;fillColor=#FFFF33;strokeColor=#36393d;" vertex="1" parent="vk6pO8AkL0Hi04yZMvHO-224">
          <mxGeometry y="207.69230769230768" width="126.19718309859154" height="55.38461538461538" as="geometry" />
        </mxCell>
        <mxCell id="vk6pO8AkL0Hi04yZMvHO-88" value="小红" style="rounded=0;whiteSpace=wrap;html=1;fillColor=#EB1C38;strokeColor=#36393d;" vertex="1" parent="vk6pO8AkL0Hi04yZMvHO-224">
          <mxGeometry x="270.42661971830984" width="108.16901408450704" height="55.38461538461538" as="geometry" />
        </mxCell>
        <mxCell id="vk6pO8AkL0Hi04yZMvHO-116" value="" style="group" vertex="1" connectable="0" parent="vk6pO8AkL0Hi04yZMvHO-224">
          <mxGeometry x="225.35211267605632" y="168.46153846153845" width="198.30985915492957" height="133.8461538461538" as="geometry" />
        </mxCell>
        <mxCell id="vk6pO8AkL0Hi04yZMvHO-117" value="" style="rounded=0;whiteSpace=wrap;html=1;fillColor=#FF6B21;" vertex="1" parent="vk6pO8AkL0Hi04yZMvHO-116">
          <mxGeometry width="198.30985915492957" height="133.8461538461538" as="geometry" />
        </mxCell>
        <mxCell id="vk6pO8AkL0Hi04yZMvHO-118" value="项目代码仓库" style="text;html=1;align=center;verticalAlign=middle;resizable=0;points=[];autosize=1;" vertex="1" parent="vk6pO8AkL0Hi04yZMvHO-116">
          <mxGeometry width="90" height="20" as="geometry" />
        </mxCell>
        <mxCell id="vk6pO8AkL0Hi04yZMvHO-223" value="所有开发人员push代码" style="rounded=0;whiteSpace=wrap;html=1;fillColor=#cdeb8b;strokeColor=#36393d;" vertex="1" parent="vk6pO8AkL0Hi04yZMvHO-116">
          <mxGeometry x="45.070422535211264" y="45.54461538461552" width="123.94366197183099" height="39.812307692307684" as="geometry" />
        </mxCell>
        <mxCell id="vk6pO8AkL0Hi04yZMvHO-212" style="edgeStyle=orthogonalEdgeStyle;rounded=0;orthogonalLoop=1;jettySize=auto;html=1;entryX=0;entryY=0.5;entryDx=0;entryDy=0;" edge="1" parent="vk6pO8AkL0Hi04yZMvHO-224" source="vk6pO8AkL0Hi04yZMvHO-87" target="vk6pO8AkL0Hi04yZMvHO-117">
          <mxGeometry relative="1" as="geometry" />
        </mxCell>
        <mxCell id="vk6pO8AkL0Hi04yZMvHO-209" style="edgeStyle=orthogonalEdgeStyle;rounded=0;orthogonalLoop=1;jettySize=auto;html=1;entryX=0.5;entryY=0;entryDx=0;entryDy=0;" edge="1" parent="vk6pO8AkL0Hi04yZMvHO-224" source="vk6pO8AkL0Hi04yZMvHO-88" target="vk6pO8AkL0Hi04yZMvHO-117">
          <mxGeometry relative="1" as="geometry" />
        </mxCell>
        <mxCell id="vk6pO8AkL0Hi04yZMvHO-214" style="edgeStyle=orthogonalEdgeStyle;rounded=0;orthogonalLoop=1;jettySize=auto;html=1;entryX=0.5;entryY=1;entryDx=0;entryDy=0;exitX=0.5;exitY=0;exitDx=0;exitDy=0;" edge="1" parent="vk6pO8AkL0Hi04yZMvHO-224" source="vk6pO8AkL0Hi04yZMvHO-199" target="vk6pO8AkL0Hi04yZMvHO-117">
          <mxGeometry relative="1" as="geometry" />
        </mxCell>
        <mxCell id="vk6pO8AkL0Hi04yZMvHO-199" value="小紫" style="rounded=0;whiteSpace=wrap;html=1;fillColor=#B266FF;strokeColor=#36393d;" vertex="1" parent="vk6pO8AkL0Hi04yZMvHO-224">
          <mxGeometry x="270.42661971830984" y="424.6153846153846" width="108.16901408450704" height="55.38461538461538" as="geometry" />
        </mxCell>
        <mxCell id="vk6pO8AkL0Hi04yZMvHO-213" style="edgeStyle=orthogonalEdgeStyle;rounded=0;orthogonalLoop=1;jettySize=auto;html=1;entryX=1;entryY=0.5;entryDx=0;entryDy=0;" edge="1" parent="vk6pO8AkL0Hi04yZMvHO-224" source="vk6pO8AkL0Hi04yZMvHO-205" target="vk6pO8AkL0Hi04yZMvHO-117">
          <mxGeometry relative="1" as="geometry" />
        </mxCell>
        <mxCell id="vk6pO8AkL0Hi04yZMvHO-205" value="小蓝" style="rounded=0;whiteSpace=wrap;html=1;fillColor=#99CCFF;strokeColor=#36393d;" vertex="1" parent="vk6pO8AkL0Hi04yZMvHO-224">
          <mxGeometry x="531.8309859154929" y="207.69230769230768" width="108.16901408450704" height="55.38461538461538" as="geometry" />
        </mxCell>
        <mxCell id="vk6pO8AkL0Hi04yZMvHO-215" value="小粉" style="rounded=0;whiteSpace=wrap;html=1;fillColor=#FF66FF;strokeColor=#36393d;" vertex="1" parent="vk6pO8AkL0Hi04yZMvHO-224">
          <mxGeometry x="504.78873239436615" y="55.38461538461538" width="108.16901408450704" height="55.38461538461538" as="geometry" />
        </mxCell>
        <mxCell id="vk6pO8AkL0Hi04yZMvHO-216" value="" style="endArrow=classic;html=1;exitX=0;exitY=1;exitDx=0;exitDy=0;entryX=1;entryY=0;entryDx=0;entryDy=0;" edge="1" parent="vk6pO8AkL0Hi04yZMvHO-224" source="vk6pO8AkL0Hi04yZMvHO-215" target="vk6pO8AkL0Hi04yZMvHO-117">
          <mxGeometry width="50" height="50" relative="1" as="geometry">
            <mxPoint x="459.7183098591549" y="175.38461538461536" as="sourcePoint" />
            <mxPoint x="504.78873239436615" y="129.23076923076923" as="targetPoint" />
          </mxGeometry>
        </mxCell>
        <mxCell id="vk6pO8AkL0Hi04yZMvHO-217" value="小棕" style="rounded=0;whiteSpace=wrap;html=1;fillColor=#CC6600;strokeColor=#36393d;" vertex="1" parent="vk6pO8AkL0Hi04yZMvHO-224">
          <mxGeometry x="81.12676056338029" y="378.46153846153845" width="108.16901408450704" height="55.38461538461538" as="geometry" />
        </mxCell>
        <mxCell id="vk6pO8AkL0Hi04yZMvHO-218" value="小青" style="rounded=0;whiteSpace=wrap;html=1;fillColor=#99FFFF;strokeColor=#36393d;" vertex="1" parent="vk6pO8AkL0Hi04yZMvHO-224">
          <mxGeometry x="477.7464788732394" y="378.46153846153845" width="108.16901408450704" height="55.38461538461538" as="geometry" />
        </mxCell>
        <mxCell id="vk6pO8AkL0Hi04yZMvHO-219" value="小橘" style="rounded=0;whiteSpace=wrap;html=1;fillColor=#FFCC99;strokeColor=#191919;" vertex="1" parent="vk6pO8AkL0Hi04yZMvHO-224">
          <mxGeometry x="63.09859154929577" y="73.84615384615384" width="108.16901408450704" height="55.38461538461538" as="geometry" />
        </mxCell>
        <mxCell id="vk6pO8AkL0Hi04yZMvHO-220" value="" style="endArrow=classic;html=1;entryX=0.016;entryY=0.075;entryDx=0;entryDy=0;entryPerimeter=0;exitX=0.937;exitY=1;exitDx=0;exitDy=0;exitPerimeter=0;" edge="1" parent="vk6pO8AkL0Hi04yZMvHO-224" source="vk6pO8AkL0Hi04yZMvHO-219" target="vk6pO8AkL0Hi04yZMvHO-118">
          <mxGeometry width="50" height="50" relative="1" as="geometry">
            <mxPoint x="-72.11267605633802" y="147.69230769230768" as="sourcePoint" />
            <mxPoint x="-27.04225352112676" y="101.53846153846155" as="targetPoint" />
          </mxGeometry>
        </mxCell>
        <mxCell id="vk6pO8AkL0Hi04yZMvHO-221" value="" style="endArrow=classic;html=1;exitX=1;exitY=0;exitDx=0;exitDy=0;entryX=0;entryY=1;entryDx=0;entryDy=0;" edge="1" parent="vk6pO8AkL0Hi04yZMvHO-224" source="vk6pO8AkL0Hi04yZMvHO-217" target="vk6pO8AkL0Hi04yZMvHO-117">
          <mxGeometry width="50" height="50" relative="1" as="geometry">
            <mxPoint x="180.28169014084506" y="369.2307692307692" as="sourcePoint" />
            <mxPoint x="225.35211267605632" y="350.7692307692307" as="targetPoint" />
          </mxGeometry>
        </mxCell>
        <mxCell id="vk6pO8AkL0Hi04yZMvHO-222" value="" style="endArrow=classic;html=1;exitX=0;exitY=0;exitDx=0;exitDy=0;entryX=1;entryY=1;entryDx=0;entryDy=0;" edge="1" parent="vk6pO8AkL0Hi04yZMvHO-224" source="vk6pO8AkL0Hi04yZMvHO-218" target="vk6pO8AkL0Hi04yZMvHO-117">
          <mxGeometry width="50" height="50" relative="1" as="geometry">
            <mxPoint x="441.6901408450704" y="360" as="sourcePoint" />
            <mxPoint x="486.7605633802817" y="313.8461538461538" as="targetPoint" />
          </mxGeometry>
        </mxCell>
        <mxCell id="vk6pO8AkL0Hi04yZMvHO-391" value="" style="group" vertex="1" connectable="0" parent="1">
          <mxGeometry x="-330" y="140" width="1420" height="230" as="geometry" />
        </mxCell>
        <mxCell id="vk6pO8AkL0Hi04yZMvHO-347" value="" style="group" vertex="1" connectable="0" parent="vk6pO8AkL0Hi04yZMvHO-391">
          <mxGeometry width="1420" height="230" as="geometry" />
        </mxCell>
        <mxCell id="vk6pO8AkL0Hi04yZMvHO-144" value="" style="group" vertex="1" connectable="0" parent="vk6pO8AkL0Hi04yZMvHO-347">
          <mxGeometry width="1420" height="230" as="geometry" />
        </mxCell>
        <mxCell id="vk6pO8AkL0Hi04yZMvHO-78" value="" style="group" vertex="1" connectable="0" parent="vk6pO8AkL0Hi04yZMvHO-144">
          <mxGeometry x="740" y="52.5" width="220" height="145" as="geometry" />
        </mxCell>
        <mxCell id="nxlwVpReJ9SHU6iR8qGh-1" value="" style="rounded=0;whiteSpace=wrap;html=1;fillColor=#FF6B21;" parent="vk6pO8AkL0Hi04yZMvHO-78" vertex="1">
          <mxGeometry width="220" height="145" as="geometry" />
        </mxCell>
        <mxCell id="vk6pO8AkL0Hi04yZMvHO-76" value="项目代码仓库" style="text;html=1;align=center;verticalAlign=middle;resizable=0;points=[];autosize=1;strokeColor=#000000;shadow=1;" vertex="1" parent="vk6pO8AkL0Hi04yZMvHO-78">
          <mxGeometry width="90" height="20" as="geometry" />
        </mxCell>
        <mxCell id="vk6pO8AkL0Hi04yZMvHO-74" value="开发人员push代码" style="rounded=0;whiteSpace=wrap;html=1;fillColor=#cdeb8b;strokeColor=#36393d;" vertex="1" parent="vk6pO8AkL0Hi04yZMvHO-78">
          <mxGeometry x="50" y="51.88" width="137.5" height="41.25" as="geometry" />
        </mxCell>
        <mxCell id="vk6pO8AkL0Hi04yZMvHO-131" value="" style="group" vertex="1" connectable="0" parent="vk6pO8AkL0Hi04yZMvHO-144">
          <mxGeometry x="1070" y="73.75" width="290" height="102.5" as="geometry" />
        </mxCell>
        <mxCell id="vk6pO8AkL0Hi04yZMvHO-80" value="" style="group" vertex="1" connectable="0" parent="vk6pO8AkL0Hi04yZMvHO-131">
          <mxGeometry width="290" height="102.5" as="geometry" />
        </mxCell>
        <mxCell id="nxlwVpReJ9SHU6iR8qGh-4" value="" style="rounded=0;whiteSpace=wrap;html=1;fillColor=#7DCBFF;" parent="vk6pO8AkL0Hi04yZMvHO-80" vertex="1">
          <mxGeometry width="290" height="102.5" as="geometry" />
        </mxCell>
        <mxCell id="vk6pO8AkL0Hi04yZMvHO-79" value="服务器项目代码" style="text;html=1;align=center;verticalAlign=middle;resizable=0;points=[];autosize=1;fillColor=none;strokeColor=#000000;shadow=1;" vertex="1" parent="vk6pO8AkL0Hi04yZMvHO-80">
          <mxGeometry width="100" height="20" as="geometry" />
        </mxCell>
        <mxCell id="vk6pO8AkL0Hi04yZMvHO-85" value="开发人员push代码" style="rounded=0;whiteSpace=wrap;html=1;fillColor=#cdeb8b;strokeColor=#36393d;" vertex="1" parent="vk6pO8AkL0Hi04yZMvHO-80">
          <mxGeometry x="90" y="31.25" width="140" height="40" as="geometry" />
        </mxCell>
        <mxCell id="vk6pO8AkL0Hi04yZMvHO-143" style="edgeStyle=orthogonalEdgeStyle;rounded=0;orthogonalLoop=1;jettySize=auto;html=1;exitX=1;exitY=0.5;exitDx=0;exitDy=0;entryX=0;entryY=0.5;entryDx=0;entryDy=0;" edge="1" parent="vk6pO8AkL0Hi04yZMvHO-144" source="nxlwVpReJ9SHU6iR8qGh-1" target="vk6pO8AkL0Hi04yZMvHO-85">
          <mxGeometry relative="1" as="geometry" />
        </mxCell>
        <mxCell id="vk6pO8AkL0Hi04yZMvHO-313" value="" style="group" vertex="1" connectable="0" parent="vk6pO8AkL0Hi04yZMvHO-144">
          <mxGeometry x="-30" width="630" height="240" as="geometry" />
        </mxCell>
        <mxCell id="vk6pO8AkL0Hi04yZMvHO-43" value=".git文件" style="text;html=1;align=center;verticalAlign=middle;resizable=0;points=[];autosize=1;" vertex="1" parent="vk6pO8AkL0Hi04yZMvHO-313">
          <mxGeometry x="259.29268720406856" y="80" width="60" height="20" as="geometry" />
        </mxCell>
        <mxCell id="vk6pO8AkL0Hi04yZMvHO-142" value="" style="group" vertex="1" connectable="0" parent="vk6pO8AkL0Hi04yZMvHO-313">
          <mxGeometry width="630" height="240" as="geometry" />
        </mxCell>
        <mxCell id="vk6pO8AkL0Hi04yZMvHO-126" value="" style="group" vertex="1" connectable="0" parent="vk6pO8AkL0Hi04yZMvHO-142">
          <mxGeometry width="630" height="240" as="geometry" />
        </mxCell>
        <mxCell id="vk6pO8AkL0Hi04yZMvHO-54" value="" style="rounded=0;whiteSpace=wrap;html=1;fillColor=#f9f7ed;strokeColor=#36393d;" vertex="1" parent="vk6pO8AkL0Hi04yZMvHO-126">
          <mxGeometry y="-60" width="630" height="300" as="geometry" />
        </mxCell>
        <mxCell id="vk6pO8AkL0Hi04yZMvHO-33" value="" style="rounded=0;whiteSpace=wrap;html=1;fillColor=#eeeeee;strokeColor=#36393d;" vertex="1" parent="vk6pO8AkL0Hi04yZMvHO-126">
          <mxGeometry x="230.63" width="359.37" height="210" as="geometry" />
        </mxCell>
        <mxCell id="vk6pO8AkL0Hi04yZMvHO-240" value=".git文件" style="text;html=1;align=center;verticalAlign=middle;resizable=0;points=[];autosize=1;strokeColor=#000000;shadow=1;" vertex="1" parent="vk6pO8AkL0Hi04yZMvHO-126">
          <mxGeometry x="230.62983606557376" y="-0.002727272727270247" width="60" height="20" as="geometry" />
        </mxCell>
        <mxCell id="vk6pO8AkL0Hi04yZMvHO-56" value="&lt;b&gt;项目文件夹&lt;/b&gt;" style="text;html=1;align=center;verticalAlign=middle;resizable=0;points=[];autosize=1;shadow=1;fillColor=none;strokeColor=#000000;" vertex="1" parent="vk6pO8AkL0Hi04yZMvHO-126">
          <mxGeometry y="-60" width="80" height="20" as="geometry" />
        </mxCell>
        <mxCell id="vk6pO8AkL0Hi04yZMvHO-58" value="" style="group;fillColor=#ffff88;strokeColor=#36393d;" vertex="1" connectable="0" parent="vk6pO8AkL0Hi04yZMvHO-126">
          <mxGeometry x="249.99630583333334" y="50.43000000000001" width="88.66369416666664" height="145" as="geometry" />
        </mxCell>
        <mxCell id="vk6pO8AkL0Hi04yZMvHO-47" value="缓存区" style="text;html=1;align=center;verticalAlign=middle;resizable=0;points=[];autosize=1;strokeColor=#000000;shadow=1;" vertex="1" parent="vk6pO8AkL0Hi04yZMvHO-58">
          <mxGeometry width="50" height="20" as="geometry" />
        </mxCell>
        <mxCell id="vk6pO8AkL0Hi04yZMvHO-290" value="" style="group" vertex="1" connectable="0" parent="vk6pO8AkL0Hi04yZMvHO-58">
          <mxGeometry x="19.33369416666666" y="39.56999999999999" width="50" height="90" as="geometry" />
        </mxCell>
        <mxCell id="vk6pO8AkL0Hi04yZMvHO-301" value="" style="group" vertex="1" connectable="0" parent="vk6pO8AkL0Hi04yZMvHO-290">
          <mxGeometry width="50" height="90" as="geometry" />
        </mxCell>
        <mxCell id="vk6pO8AkL0Hi04yZMvHO-284" value="代码1" style="group;fillColor=#ffcccc;strokeColor=#36393d;" vertex="1" connectable="0" parent="vk6pO8AkL0Hi04yZMvHO-301">
          <mxGeometry width="50" height="30" as="geometry" />
        </mxCell>
        <mxCell id="vk6pO8AkL0Hi04yZMvHO-288" value="代码2" style="group;fillColor=#ffcccc;strokeColor=#36393d;" vertex="1" connectable="0" parent="vk6pO8AkL0Hi04yZMvHO-301">
          <mxGeometry y="30" width="50" height="30" as="geometry" />
        </mxCell>
        <mxCell id="vk6pO8AkL0Hi04yZMvHO-289" value="代码3" style="group;fillColor=#ffcccc;strokeColor=#36393d;" vertex="1" connectable="0" parent="vk6pO8AkL0Hi04yZMvHO-301">
          <mxGeometry y="60" width="50" height="30" as="geometry" />
        </mxCell>
        <mxCell id="vk6pO8AkL0Hi04yZMvHO-239" value="" style="group" vertex="1" connectable="0" parent="vk6pO8AkL0Hi04yZMvHO-126">
          <mxGeometry x="30.49" y="-1.09" width="140" height="211.09" as="geometry" />
        </mxCell>
        <mxCell id="vk6pO8AkL0Hi04yZMvHO-227" value="" style="rounded=0;whiteSpace=wrap;html=1;fillColor=#cdeb8b;strokeColor=#36393d;" vertex="1" parent="vk6pO8AkL0Hi04yZMvHO-239">
          <mxGeometry y="40" width="140" height="171.09" as="geometry" />
        </mxCell>
        <mxCell id="vk6pO8AkL0Hi04yZMvHO-238" value="工作区" style="text;html=1;align=center;verticalAlign=middle;resizable=0;points=[];autosize=1;strokeColor=#000000;shadow=1;rounded=0;glass=0;comic=0;" vertex="1" parent="vk6pO8AkL0Hi04yZMvHO-239">
          <mxGeometry y="40" width="50" height="20" as="geometry" />
        </mxCell>
        <mxCell id="vk6pO8AkL0Hi04yZMvHO-302" value="" style="group" vertex="1" connectable="0" parent="vk6pO8AkL0Hi04yZMvHO-239">
          <mxGeometry x="45" y="91.08999999999999" width="50" height="90" as="geometry" />
        </mxCell>
        <mxCell id="vk6pO8AkL0Hi04yZMvHO-310" value="" style="group" vertex="1" connectable="0" parent="vk6pO8AkL0Hi04yZMvHO-302">
          <mxGeometry width="50" height="90" as="geometry" />
        </mxCell>
        <mxCell id="vk6pO8AkL0Hi04yZMvHO-303" value="代码1" style="group;fillColor=#ffcccc;strokeColor=#36393d;" vertex="1" connectable="0" parent="vk6pO8AkL0Hi04yZMvHO-310">
          <mxGeometry width="50" height="30" as="geometry" />
        </mxCell>
        <mxCell id="vk6pO8AkL0Hi04yZMvHO-304" value="代码2" style="group;fillColor=#ffcccc;strokeColor=#36393d;" vertex="1" connectable="0" parent="vk6pO8AkL0Hi04yZMvHO-310">
          <mxGeometry y="30" width="50" height="30" as="geometry" />
        </mxCell>
        <mxCell id="vk6pO8AkL0Hi04yZMvHO-305" value="代码3" style="group;fillColor=#ffcccc;strokeColor=#36393d;" vertex="1" connectable="0" parent="vk6pO8AkL0Hi04yZMvHO-310">
          <mxGeometry y="60" width="50" height="30" as="geometry" />
        </mxCell>
        <mxCell id="vk6pO8AkL0Hi04yZMvHO-311" value="" style="endArrow=classic;html=1;" edge="1" parent="vk6pO8AkL0Hi04yZMvHO-126">
          <mxGeometry width="50" height="50" relative="1" as="geometry">
            <mxPoint x="130" y="130" as="sourcePoint" />
            <mxPoint x="270" y="130" as="targetPoint" />
          </mxGeometry>
        </mxCell>
        <mxCell id="vk6pO8AkL0Hi04yZMvHO-390" value="git add" style="text;html=1;align=center;verticalAlign=middle;resizable=0;points=[];autosize=1;fillColor=#ffffff;comic=0;strokeColor=#000000;" vertex="1" parent="vk6pO8AkL0Hi04yZMvHO-126">
          <mxGeometry x="175.49" y="105" width="50" height="20" as="geometry" />
        </mxCell>
        <mxCell id="vk6pO8AkL0Hi04yZMvHO-62" value="" style="group;fillColor=#cdeb8b;strokeColor=#36393d;" vertex="1" connectable="0" parent="vk6pO8AkL0Hi04yZMvHO-126">
          <mxGeometry x="420" y="50.43" width="154.1" height="149.57" as="geometry" />
        </mxCell>
        <mxCell id="vk6pO8AkL0Hi04yZMvHO-49" value="" style="rounded=0;whiteSpace=wrap;html=1;fillColor=#cdeb8b;strokeColor=#36393d;" vertex="1" parent="vk6pO8AkL0Hi04yZMvHO-62">
          <mxGeometry width="154.09999999999997" height="149.57" as="geometry" />
        </mxCell>
        <mxCell id="vk6pO8AkL0Hi04yZMvHO-59" value="git仓库代码区" style="text;html=1;align=center;verticalAlign=middle;resizable=0;points=[];autosize=1;strokeColor=#000000;shadow=1;" vertex="1" parent="vk6pO8AkL0Hi04yZMvHO-62">
          <mxGeometry width="90" height="20" as="geometry" />
        </mxCell>
        <mxCell id="vk6pO8AkL0Hi04yZMvHO-312" value="" style="endArrow=classic;html=1;" edge="1" parent="vk6pO8AkL0Hi04yZMvHO-62">
          <mxGeometry width="50" height="50" relative="1" as="geometry">
            <mxPoint x="-80" y="79.57" as="sourcePoint" />
            <mxPoint x="54.10000000000002" y="79.57" as="targetPoint" />
          </mxGeometry>
        </mxCell>
        <mxCell id="vk6pO8AkL0Hi04yZMvHO-389" value="&amp;nbsp;git commit" style="text;html=1;align=center;verticalAlign=middle;resizable=0;points=[];autosize=1;fillColor=#ffffff;comic=0;strokeColor=#000000;" vertex="1" parent="vk6pO8AkL0Hi04yZMvHO-126">
          <mxGeometry x="346" y="105" width="70" height="20" as="geometry" />
        </mxCell>
        <mxCell id="vk6pO8AkL0Hi04yZMvHO-134" style="edgeStyle=orthogonalEdgeStyle;rounded=0;orthogonalLoop=1;jettySize=auto;html=1;exitX=1;exitY=0.5;exitDx=0;exitDy=0;entryX=0;entryY=0.5;entryDx=0;entryDy=0;" edge="1" parent="vk6pO8AkL0Hi04yZMvHO-144" source="vk6pO8AkL0Hi04yZMvHO-49" target="vk6pO8AkL0Hi04yZMvHO-74">
          <mxGeometry relative="1" as="geometry" />
        </mxCell>
        <mxCell id="vk6pO8AkL0Hi04yZMvHO-387" value="git push" style="text;html=1;align=center;verticalAlign=middle;resizable=0;points=[];autosize=1;fillColor=#ffffff;comic=0;strokeColor=#000000;" vertex="1" parent="vk6pO8AkL0Hi04yZMvHO-144">
          <mxGeometry x="640" y="100" width="60" height="20" as="geometry" />
        </mxCell>
        <mxCell id="vk6pO8AkL0Hi04yZMvHO-388" value="项目构建" style="text;html=1;align=center;verticalAlign=middle;resizable=0;points=[];autosize=1;strokeColor=#000000;" vertex="1" parent="vk6pO8AkL0Hi04yZMvHO-144">
          <mxGeometry x="983" y="101" width="60" height="20" as="geometry" />
        </mxCell>
        <mxCell id="vk6pO8AkL0Hi04yZMvHO-306" value="" style="group" vertex="1" connectable="0" parent="vk6pO8AkL0Hi04yZMvHO-347">
          <mxGeometry x="440" y="90" width="50" height="90" as="geometry" />
        </mxCell>
        <mxCell id="vk6pO8AkL0Hi04yZMvHO-307" value="代码1" style="group;fillColor=#ffcccc;strokeColor=#36393d;" vertex="1" connectable="0" parent="vk6pO8AkL0Hi04yZMvHO-306">
          <mxGeometry width="50" height="30" as="geometry" />
        </mxCell>
        <mxCell id="vk6pO8AkL0Hi04yZMvHO-308" value="代码2" style="group;fillColor=#ffcccc;strokeColor=#36393d;" vertex="1" connectable="0" parent="vk6pO8AkL0Hi04yZMvHO-306">
          <mxGeometry y="30" width="50" height="30" as="geometry" />
        </mxCell>
        <mxCell id="vk6pO8AkL0Hi04yZMvHO-309" value="代码3" style="group;fillColor=#ffcccc;strokeColor=#36393d;" vertex="1" connectable="0" parent="vk6pO8AkL0Hi04yZMvHO-306">
          <mxGeometry y="60" width="50" height="30" as="geometry" />
        </mxCell>
        <mxCell id="vk6pO8AkL0Hi04yZMvHO-437" value="" style="group" vertex="1" connectable="0" parent="1">
          <mxGeometry x="-276.68" y="1570" width="690" height="330" as="geometry" />
        </mxCell>
        <mxCell id="vk6pO8AkL0Hi04yZMvHO-438" value="" style="group" vertex="1" connectable="0" parent="vk6pO8AkL0Hi04yZMvHO-437">
          <mxGeometry width="690" height="330" as="geometry" />
        </mxCell>
        <mxCell id="vk6pO8AkL0Hi04yZMvHO-439" value="" style="group" vertex="1" connectable="0" parent="vk6pO8AkL0Hi04yZMvHO-438">
          <mxGeometry x="-7.187499999999999" width="438.43749999999994" height="181.5" as="geometry" />
        </mxCell>
        <mxCell id="vk6pO8AkL0Hi04yZMvHO-440" value="" style="group" vertex="1" connectable="0" parent="vk6pO8AkL0Hi04yZMvHO-438">
          <mxGeometry x="-64.68750000000001" y="82.5" width="704.375" height="247.5" as="geometry" />
        </mxCell>
        <mxCell id="vk6pO8AkL0Hi04yZMvHO-510" value="&lt;b&gt;&amp;nbsp;git add -A&lt;/b&gt;" style="text;html=1;align=center;verticalAlign=middle;resizable=0;points=[];autosize=1;" vertex="1" parent="vk6pO8AkL0Hi04yZMvHO-440">
          <mxGeometry x="516.3675000000001" y="7" width="70" height="20" as="geometry" />
        </mxCell>
        <mxCell id="vk6pO8AkL0Hi04yZMvHO-511" value="" style="group" vertex="1" connectable="0" parent="vk6pO8AkL0Hi04yZMvHO-440">
          <mxGeometry x="21.372499999999995" y="7" width="452.8124999999999" height="198" as="geometry" />
        </mxCell>
        <mxCell id="vk6pO8AkL0Hi04yZMvHO-441" value="&#xa;&#xa;&#xa;&#xa;&#xa;&#xa;" style="group" vertex="1" connectable="0" parent="vk6pO8AkL0Hi04yZMvHO-511">
          <mxGeometry width="452.8124999999999" height="198" as="geometry" />
        </mxCell>
        <mxCell id="vk6pO8AkL0Hi04yZMvHO-442" value=".git文件" style="text;html=1;align=center;verticalAlign=middle;resizable=0;points=[];autosize=1;" vertex="1" parent="vk6pO8AkL0Hi04yZMvHO-441">
          <mxGeometry x="186.36661892792424" y="66" width="60" height="20" as="geometry" />
        </mxCell>
        <mxCell id="vk6pO8AkL0Hi04yZMvHO-443" value="" style="group" vertex="1" connectable="0" parent="vk6pO8AkL0Hi04yZMvHO-441">
          <mxGeometry width="452.8124999999999" height="198" as="geometry" />
        </mxCell>
        <mxCell id="vk6pO8AkL0Hi04yZMvHO-444" value="" style="group" vertex="1" connectable="0" parent="vk6pO8AkL0Hi04yZMvHO-443">
          <mxGeometry width="452.8124999999999" height="198" as="geometry" />
        </mxCell>
        <mxCell id="vk6pO8AkL0Hi04yZMvHO-445" value="" style="rounded=0;whiteSpace=wrap;html=1;fillColor=#f9f7ed;strokeColor=#36393d;" vertex="1" parent="vk6pO8AkL0Hi04yZMvHO-444">
          <mxGeometry y="-33" width="452.8124999999999" height="231" as="geometry" />
        </mxCell>
        <mxCell id="vk6pO8AkL0Hi04yZMvHO-446" value="" style="rounded=0;whiteSpace=wrap;html=1;fillColor=#eeeeee;strokeColor=#36393d;" vertex="1" parent="vk6pO8AkL0Hi04yZMvHO-444">
          <mxGeometry x="165.7653125" width="222.35968749999995" height="173.25" as="geometry" />
        </mxCell>
        <mxCell id="vk6pO8AkL0Hi04yZMvHO-447" value=".git文件" style="text;html=1;align=center;verticalAlign=middle;resizable=0;points=[];autosize=1;strokeColor=#000000;shadow=1;" vertex="1" parent="vk6pO8AkL0Hi04yZMvHO-444">
          <mxGeometry x="165.76519467213112" y="-0.0022499999999979533" width="60" height="20" as="geometry" />
        </mxCell>
        <mxCell id="vk6pO8AkL0Hi04yZMvHO-449" value="" style="group;fillColor=#cdeb8b;strokeColor=#36393d;" vertex="1" connectable="0" parent="vk6pO8AkL0Hi04yZMvHO-444">
          <mxGeometry x="262.9906249999999" y="41.604749999999996" width="110.75937499999998" height="123.39524999999999" as="geometry" />
        </mxCell>
        <mxCell id="vk6pO8AkL0Hi04yZMvHO-450" value="" style="rounded=0;whiteSpace=wrap;html=1;fillColor=#cdeb8b;strokeColor=#36393d;" vertex="1" parent="vk6pO8AkL0Hi04yZMvHO-449">
          <mxGeometry width="110.75937499999995" height="123.39524999999999" as="geometry" />
        </mxCell>
        <mxCell id="vk6pO8AkL0Hi04yZMvHO-451" value="git仓库代码区" style="text;html=1;align=center;verticalAlign=middle;resizable=0;points=[];autosize=1;strokeColor=#000000;shadow=1;" vertex="1" parent="vk6pO8AkL0Hi04yZMvHO-449">
          <mxGeometry width="90" height="20" as="geometry" />
        </mxCell>
        <mxCell id="vk6pO8AkL0Hi04yZMvHO-452" value="" style="group;fillColor=#ffff88;strokeColor=#36393d;" vertex="1" connectable="0" parent="vk6pO8AkL0Hi04yZMvHO-444">
          <mxGeometry x="179.68484481770832" y="41.604749999999996" width="63.72703018229165" height="119.625" as="geometry" />
        </mxCell>
        <mxCell id="vk6pO8AkL0Hi04yZMvHO-453" value="缓存区" style="text;html=1;align=center;verticalAlign=middle;resizable=0;points=[];autosize=1;strokeColor=#000000;shadow=1;" vertex="1" parent="vk6pO8AkL0Hi04yZMvHO-452">
          <mxGeometry width="50" height="20" as="geometry" />
        </mxCell>
        <mxCell id="vk6pO8AkL0Hi04yZMvHO-461" value="" style="group" vertex="1" connectable="0" parent="vk6pO8AkL0Hi04yZMvHO-444">
          <mxGeometry x="21.914687499999996" width="100.62499999999999" height="174.14924999999997" as="geometry" />
        </mxCell>
        <mxCell id="vk6pO8AkL0Hi04yZMvHO-462" value="" style="rounded=0;whiteSpace=wrap;html=1;fillColor=#cdeb8b;strokeColor=#36393d;" vertex="1" parent="vk6pO8AkL0Hi04yZMvHO-461">
          <mxGeometry y="33" width="100.62499999999999" height="141.14924999999997" as="geometry" />
        </mxCell>
        <mxCell id="vk6pO8AkL0Hi04yZMvHO-463" value="工作区" style="text;html=1;align=center;verticalAlign=middle;resizable=0;points=[];autosize=1;strokeColor=#000000;shadow=1;rounded=0;glass=0;comic=0;" vertex="1" parent="vk6pO8AkL0Hi04yZMvHO-461">
          <mxGeometry y="33" width="50" height="20" as="geometry" />
        </mxCell>
        <mxCell id="vk6pO8AkL0Hi04yZMvHO-465" value="" style="group" vertex="1" connectable="0" parent="vk6pO8AkL0Hi04yZMvHO-461">
          <mxGeometry x="32.34375" y="75.14924999999994" width="35.93749999999999" height="74.25" as="geometry" />
        </mxCell>
        <mxCell id="vk6pO8AkL0Hi04yZMvHO-466" value="1.txt" style="group;fillColor=#ffcccc;strokeColor=#36393d;" vertex="1" connectable="0" parent="vk6pO8AkL0Hi04yZMvHO-465">
          <mxGeometry y="-8" width="35.93749999999999" height="24.75" as="geometry" />
        </mxCell>
        <mxCell id="vk6pO8AkL0Hi04yZMvHO-467" value="2.txt" style="group;fillColor=#ffcccc;strokeColor=#36393d;" vertex="1" connectable="0" parent="vk6pO8AkL0Hi04yZMvHO-465">
          <mxGeometry y="22.75" width="35.93749999999999" height="24.75" as="geometry" />
        </mxCell>
        <mxCell id="vk6pO8AkL0Hi04yZMvHO-468" value="3.txt" style="group;fillColor=#ffcccc;strokeColor=#36393d;" vertex="1" connectable="0" parent="vk6pO8AkL0Hi04yZMvHO-465">
          <mxGeometry y="52.5" width="35.93749999999999" height="24.75" as="geometry" />
        </mxCell>
        <mxCell id="vk6pO8AkL0Hi04yZMvHO-618" value="&lt;b&gt;git checkout .&lt;br&gt;/&lt;br&gt;git reset --hard&lt;br&gt;&lt;/b&gt;" style="text;html=1;align=center;verticalAlign=middle;resizable=0;points=[];autosize=1;" vertex="1" parent="vk6pO8AkL0Hi04yZMvHO-440">
          <mxGeometry x="501.3675" y="81" width="100" height="50" as="geometry" />
        </mxCell>
        <mxCell id="vk6pO8AkL0Hi04yZMvHO-617" value="" style="shape=flexArrow;endArrow=classic;html=1;exitX=0;exitY=0.75;exitDx=0;exitDy=0;" edge="1" parent="vk6pO8AkL0Hi04yZMvHO-440">
          <mxGeometry width="50" height="50" relative="1" as="geometry">
            <mxPoint x="630.8725000000002" y="137.5" as="sourcePoint" />
            <mxPoint x="471.8675" y="138.25" as="targetPoint" />
          </mxGeometry>
        </mxCell>
        <mxCell id="vk6pO8AkL0Hi04yZMvHO-448" value="&lt;b&gt;项目文件夹&lt;/b&gt;" style="text;html=1;align=center;verticalAlign=middle;resizable=0;points=[];autosize=1;shadow=1;fillColor=none;strokeColor=#000000;" vertex="1" parent="1">
          <mxGeometry x="-319.995" y="1626.5" width="80" height="20" as="geometry" />
        </mxCell>
        <mxCell id="vk6pO8AkL0Hi04yZMvHO-532" value="" style="group" vertex="1" connectable="0" parent="1">
          <mxGeometry x="290.005" y="1663" width="452.8124999999999" height="198" as="geometry" />
        </mxCell>
        <mxCell id="vk6pO8AkL0Hi04yZMvHO-533" value="&#xa;&#xa;&#xa;&#xa;&#xa;&#xa;" style="group" vertex="1" connectable="0" parent="vk6pO8AkL0Hi04yZMvHO-532">
          <mxGeometry width="452.8124999999999" height="198" as="geometry" />
        </mxCell>
        <mxCell id="vk6pO8AkL0Hi04yZMvHO-534" value=".git文件" style="text;html=1;align=center;verticalAlign=middle;resizable=0;points=[];autosize=1;" vertex="1" parent="vk6pO8AkL0Hi04yZMvHO-533">
          <mxGeometry x="186.36661892792424" y="66" width="60" height="20" as="geometry" />
        </mxCell>
        <mxCell id="vk6pO8AkL0Hi04yZMvHO-535" value="" style="group" vertex="1" connectable="0" parent="vk6pO8AkL0Hi04yZMvHO-533">
          <mxGeometry width="452.8124999999999" height="198" as="geometry" />
        </mxCell>
        <mxCell id="vk6pO8AkL0Hi04yZMvHO-536" value="" style="group" vertex="1" connectable="0" parent="vk6pO8AkL0Hi04yZMvHO-535">
          <mxGeometry width="452.8124999999999" height="198" as="geometry" />
        </mxCell>
        <mxCell id="vk6pO8AkL0Hi04yZMvHO-537" value="" style="rounded=0;whiteSpace=wrap;html=1;fillColor=#f9f7ed;strokeColor=#36393d;" vertex="1" parent="vk6pO8AkL0Hi04yZMvHO-536">
          <mxGeometry y="-33" width="452.8124999999999" height="231" as="geometry" />
        </mxCell>
        <mxCell id="vk6pO8AkL0Hi04yZMvHO-538" value="" style="rounded=0;whiteSpace=wrap;html=1;fillColor=#eeeeee;strokeColor=#36393d;" vertex="1" parent="vk6pO8AkL0Hi04yZMvHO-536">
          <mxGeometry x="165.7653125" width="222.35968749999995" height="173.25" as="geometry" />
        </mxCell>
        <mxCell id="vk6pO8AkL0Hi04yZMvHO-539" value=".git文件" style="text;html=1;align=center;verticalAlign=middle;resizable=0;points=[];autosize=1;strokeColor=#000000;shadow=1;" vertex="1" parent="vk6pO8AkL0Hi04yZMvHO-536">
          <mxGeometry x="165.76519467213112" y="-0.0022499999999979533" width="60" height="20" as="geometry" />
        </mxCell>
        <mxCell id="vk6pO8AkL0Hi04yZMvHO-540" value="" style="group;fillColor=#cdeb8b;strokeColor=#36393d;" vertex="1" connectable="0" parent="vk6pO8AkL0Hi04yZMvHO-536">
          <mxGeometry x="262.9906249999999" y="41.604749999999996" width="110.75937499999998" height="123.39524999999999" as="geometry" />
        </mxCell>
        <mxCell id="vk6pO8AkL0Hi04yZMvHO-541" value="" style="rounded=0;whiteSpace=wrap;html=1;fillColor=#cdeb8b;strokeColor=#36393d;" vertex="1" parent="vk6pO8AkL0Hi04yZMvHO-540">
          <mxGeometry width="110.75937499999995" height="123.39524999999999" as="geometry" />
        </mxCell>
        <mxCell id="vk6pO8AkL0Hi04yZMvHO-542" value="git仓库代码区" style="text;html=1;align=center;verticalAlign=middle;resizable=0;points=[];autosize=1;strokeColor=#000000;shadow=1;" vertex="1" parent="vk6pO8AkL0Hi04yZMvHO-540">
          <mxGeometry width="90" height="20" as="geometry" />
        </mxCell>
        <mxCell id="vk6pO8AkL0Hi04yZMvHO-543" value="" style="group;fillColor=#ffff88;strokeColor=#36393d;" vertex="1" connectable="0" parent="vk6pO8AkL0Hi04yZMvHO-536">
          <mxGeometry x="179.68484481770832" y="41.604749999999996" width="63.72703018229165" height="119.625" as="geometry" />
        </mxCell>
        <mxCell id="vk6pO8AkL0Hi04yZMvHO-544" value="缓存区" style="text;html=1;align=center;verticalAlign=middle;resizable=0;points=[];autosize=1;strokeColor=#000000;shadow=1;" vertex="1" parent="vk6pO8AkL0Hi04yZMvHO-543">
          <mxGeometry width="50" height="20" as="geometry" />
        </mxCell>
        <mxCell id="vk6pO8AkL0Hi04yZMvHO-583" value="" style="group" vertex="1" connectable="0" parent="vk6pO8AkL0Hi04yZMvHO-543">
          <mxGeometry x="16.673592682291712" y="34.52449999999999" width="35.93749999999999" height="74.25" as="geometry" />
        </mxCell>
        <mxCell id="vk6pO8AkL0Hi04yZMvHO-584" value="1.txt" style="group;fillColor=#ffcccc;strokeColor=#36393d;" vertex="1" connectable="0" parent="vk6pO8AkL0Hi04yZMvHO-583">
          <mxGeometry y="-8" width="35.93749999999999" height="24.75" as="geometry" />
        </mxCell>
        <mxCell id="vk6pO8AkL0Hi04yZMvHO-585" value="2.txt" style="group;fillColor=#ffcccc;strokeColor=#36393d;" vertex="1" connectable="0" parent="vk6pO8AkL0Hi04yZMvHO-583">
          <mxGeometry y="22.75" width="35.93749999999999" height="24.75" as="geometry" />
        </mxCell>
        <mxCell id="vk6pO8AkL0Hi04yZMvHO-586" value="3.txt" style="group;fillColor=#ffcccc;strokeColor=#36393d;" vertex="1" connectable="0" parent="vk6pO8AkL0Hi04yZMvHO-583">
          <mxGeometry y="52.5" width="35.93749999999999" height="24.75" as="geometry" />
        </mxCell>
        <mxCell id="vk6pO8AkL0Hi04yZMvHO-545" value="" style="group" vertex="1" connectable="0" parent="vk6pO8AkL0Hi04yZMvHO-536">
          <mxGeometry x="21.914687499999996" width="100.62499999999999" height="174.14924999999997" as="geometry" />
        </mxCell>
        <mxCell id="vk6pO8AkL0Hi04yZMvHO-546" value="" style="rounded=0;whiteSpace=wrap;html=1;fillColor=#cdeb8b;strokeColor=#36393d;" vertex="1" parent="vk6pO8AkL0Hi04yZMvHO-545">
          <mxGeometry y="33" width="100.62499999999999" height="141.14924999999997" as="geometry" />
        </mxCell>
        <mxCell id="vk6pO8AkL0Hi04yZMvHO-547" value="工作区" style="text;html=1;align=center;verticalAlign=middle;resizable=0;points=[];autosize=1;strokeColor=#000000;shadow=1;rounded=0;glass=0;comic=0;" vertex="1" parent="vk6pO8AkL0Hi04yZMvHO-545">
          <mxGeometry y="33" width="50" height="20" as="geometry" />
        </mxCell>
        <mxCell id="vk6pO8AkL0Hi04yZMvHO-548" value="" style="group" vertex="1" connectable="0" parent="vk6pO8AkL0Hi04yZMvHO-545">
          <mxGeometry x="32.34375" y="75.14924999999994" width="35.93749999999999" height="74.25" as="geometry" />
        </mxCell>
        <mxCell id="vk6pO8AkL0Hi04yZMvHO-549" value="1.txt" style="group;fillColor=#ffcccc;strokeColor=#36393d;" vertex="1" connectable="0" parent="vk6pO8AkL0Hi04yZMvHO-548">
          <mxGeometry y="-8" width="35.93749999999999" height="24.75" as="geometry" />
        </mxCell>
        <mxCell id="vk6pO8AkL0Hi04yZMvHO-550" value="2.txt" style="group;fillColor=#ffcccc;strokeColor=#36393d;" vertex="1" connectable="0" parent="vk6pO8AkL0Hi04yZMvHO-548">
          <mxGeometry y="22.75" width="35.93749999999999" height="24.75" as="geometry" />
        </mxCell>
        <mxCell id="vk6pO8AkL0Hi04yZMvHO-551" value="3.txt" style="group;fillColor=#ffcccc;strokeColor=#36393d;" vertex="1" connectable="0" parent="vk6pO8AkL0Hi04yZMvHO-548">
          <mxGeometry y="52.5" width="35.93749999999999" height="24.75" as="geometry" />
        </mxCell>
        <mxCell id="vk6pO8AkL0Hi04yZMvHO-552" value="&lt;b&gt;项目文件夹&lt;/b&gt;" style="text;html=1;align=center;verticalAlign=middle;resizable=0;points=[];autosize=1;shadow=1;fillColor=none;strokeColor=#000000;" vertex="1" parent="1">
          <mxGeometry x="290.005" y="1630" width="80" height="20" as="geometry" />
        </mxCell>
        <mxCell id="vk6pO8AkL0Hi04yZMvHO-587" value="" style="group" vertex="1" connectable="0" parent="1">
          <mxGeometry x="-20.005000000000003" y="2113" width="452.8124999999999" height="198" as="geometry" />
        </mxCell>
        <mxCell id="vk6pO8AkL0Hi04yZMvHO-588" value="&#xa;&#xa;&#xa;&#xa;&#xa;&#xa;" style="group" vertex="1" connectable="0" parent="vk6pO8AkL0Hi04yZMvHO-587">
          <mxGeometry width="452.8124999999999" height="198" as="geometry" />
        </mxCell>
        <mxCell id="vk6pO8AkL0Hi04yZMvHO-589" value=".git文件" style="text;html=1;align=center;verticalAlign=middle;resizable=0;points=[];autosize=1;" vertex="1" parent="vk6pO8AkL0Hi04yZMvHO-588">
          <mxGeometry x="186.36661892792424" y="66" width="60" height="20" as="geometry" />
        </mxCell>
        <mxCell id="vk6pO8AkL0Hi04yZMvHO-590" value="" style="group" vertex="1" connectable="0" parent="vk6pO8AkL0Hi04yZMvHO-588">
          <mxGeometry width="452.8124999999999" height="198" as="geometry" />
        </mxCell>
        <mxCell id="vk6pO8AkL0Hi04yZMvHO-591" value="" style="group" vertex="1" connectable="0" parent="vk6pO8AkL0Hi04yZMvHO-590">
          <mxGeometry width="452.8124999999999" height="198" as="geometry" />
        </mxCell>
        <mxCell id="vk6pO8AkL0Hi04yZMvHO-592" value="" style="rounded=0;whiteSpace=wrap;html=1;fillColor=#f9f7ed;strokeColor=#36393d;" vertex="1" parent="vk6pO8AkL0Hi04yZMvHO-591">
          <mxGeometry y="-33" width="452.8124999999999" height="231" as="geometry" />
        </mxCell>
        <mxCell id="vk6pO8AkL0Hi04yZMvHO-593" value="" style="rounded=0;whiteSpace=wrap;html=1;fillColor=#eeeeee;strokeColor=#36393d;" vertex="1" parent="vk6pO8AkL0Hi04yZMvHO-591">
          <mxGeometry x="165.7653125" width="222.35968749999995" height="173.25" as="geometry" />
        </mxCell>
        <mxCell id="vk6pO8AkL0Hi04yZMvHO-594" value=".git文件" style="text;html=1;align=center;verticalAlign=middle;resizable=0;points=[];autosize=1;strokeColor=#000000;shadow=1;" vertex="1" parent="vk6pO8AkL0Hi04yZMvHO-591">
          <mxGeometry x="165.76519467213112" y="-0.0022499999999979533" width="60" height="20" as="geometry" />
        </mxCell>
        <mxCell id="vk6pO8AkL0Hi04yZMvHO-595" value="" style="group;fillColor=#cdeb8b;strokeColor=#36393d;" vertex="1" connectable="0" parent="vk6pO8AkL0Hi04yZMvHO-591">
          <mxGeometry x="262.9906249999999" y="41.604749999999996" width="110.75937499999998" height="123.39524999999999" as="geometry" />
        </mxCell>
        <mxCell id="vk6pO8AkL0Hi04yZMvHO-596" value="" style="rounded=0;whiteSpace=wrap;html=1;fillColor=#cdeb8b;strokeColor=#36393d;" vertex="1" parent="vk6pO8AkL0Hi04yZMvHO-595">
          <mxGeometry width="110.75937499999995" height="123.39524999999999" as="geometry" />
        </mxCell>
        <mxCell id="vk6pO8AkL0Hi04yZMvHO-597" value="git仓库代码区" style="text;html=1;align=center;verticalAlign=middle;resizable=0;points=[];autosize=1;strokeColor=#000000;shadow=1;" vertex="1" parent="vk6pO8AkL0Hi04yZMvHO-595">
          <mxGeometry width="90" height="20" as="geometry" />
        </mxCell>
        <mxCell id="vk6pO8AkL0Hi04yZMvHO-598" value="" style="group;fillColor=#ffff88;strokeColor=#36393d;" vertex="1" connectable="0" parent="vk6pO8AkL0Hi04yZMvHO-591">
          <mxGeometry x="179.68484481770832" y="41.604749999999996" width="63.72703018229165" height="120.6445" as="geometry" />
        </mxCell>
        <mxCell id="vk6pO8AkL0Hi04yZMvHO-599" value="缓存区" style="text;html=1;align=center;verticalAlign=middle;resizable=0;points=[];autosize=1;strokeColor=#000000;shadow=1;" vertex="1" parent="vk6pO8AkL0Hi04yZMvHO-598">
          <mxGeometry width="50" height="20" as="geometry" />
        </mxCell>
        <mxCell id="vk6pO8AkL0Hi04yZMvHO-604" value="" style="group" vertex="1" connectable="0" parent="vk6pO8AkL0Hi04yZMvHO-591">
          <mxGeometry x="21.914687499999996" width="100.62499999999999" height="174.14924999999997" as="geometry" />
        </mxCell>
        <mxCell id="vk6pO8AkL0Hi04yZMvHO-605" value="" style="rounded=0;whiteSpace=wrap;html=1;fillColor=#cdeb8b;strokeColor=#36393d;" vertex="1" parent="vk6pO8AkL0Hi04yZMvHO-604">
          <mxGeometry y="33" width="100.62499999999999" height="141.14924999999997" as="geometry" />
        </mxCell>
        <mxCell id="vk6pO8AkL0Hi04yZMvHO-606" value="工作区" style="text;html=1;align=center;verticalAlign=middle;resizable=0;points=[];autosize=1;strokeColor=#000000;shadow=1;rounded=0;glass=0;comic=0;" vertex="1" parent="vk6pO8AkL0Hi04yZMvHO-604">
          <mxGeometry y="33" width="50" height="20" as="geometry" />
        </mxCell>
        <mxCell id="vk6pO8AkL0Hi04yZMvHO-607" value="" style="group" vertex="1" connectable="0" parent="vk6pO8AkL0Hi04yZMvHO-604">
          <mxGeometry x="32.34375" y="75.14924999999994" width="35.93749999999999" height="74.25" as="geometry" />
        </mxCell>
        <mxCell id="vk6pO8AkL0Hi04yZMvHO-608" value="1.txt" style="group;fillColor=#ffcccc;strokeColor=#36393d;" vertex="1" connectable="0" parent="vk6pO8AkL0Hi04yZMvHO-607">
          <mxGeometry y="-8" width="35.93749999999999" height="24.75" as="geometry" />
        </mxCell>
        <mxCell id="vk6pO8AkL0Hi04yZMvHO-609" value="2.txt" style="group;fillColor=#ffcccc;strokeColor=#36393d;" vertex="1" connectable="0" parent="vk6pO8AkL0Hi04yZMvHO-607">
          <mxGeometry y="22.75" width="35.93749999999999" height="24.75" as="geometry" />
        </mxCell>
        <mxCell id="vk6pO8AkL0Hi04yZMvHO-610" value="3.txt" style="group;fillColor=#ffcccc;strokeColor=#36393d;" vertex="1" connectable="0" parent="vk6pO8AkL0Hi04yZMvHO-607">
          <mxGeometry y="52.5" width="35.93749999999999" height="24.75" as="geometry" />
        </mxCell>
        <mxCell id="vk6pO8AkL0Hi04yZMvHO-611" value="&lt;b&gt;项目文件夹&lt;/b&gt;" style="text;html=1;align=center;verticalAlign=middle;resizable=0;points=[];autosize=1;shadow=1;fillColor=none;strokeColor=#000000;" vertex="1" parent="1">
          <mxGeometry x="-20.005000000000003" y="2080" width="80" height="20" as="geometry" />
        </mxCell>
        <mxCell id="vk6pO8AkL0Hi04yZMvHO-613" value="" style="group" vertex="1" connectable="0" parent="1">
          <mxGeometry x="282.8134375" y="2184.99925" width="35.93749999999999" height="85.25" as="geometry" />
        </mxCell>
        <mxCell id="vk6pO8AkL0Hi04yZMvHO-614" value="1.txt" style="group;fillColor=#ffcccc;strokeColor=#36393d;" vertex="1" connectable="0" parent="vk6pO8AkL0Hi04yZMvHO-613">
          <mxGeometry width="35.93749999999999" height="24.75" as="geometry" />
        </mxCell>
        <mxCell id="vk6pO8AkL0Hi04yZMvHO-615" value="2.txt" style="group;fillColor=#ffcccc;strokeColor=#36393d;" vertex="1" connectable="0" parent="vk6pO8AkL0Hi04yZMvHO-613">
          <mxGeometry y="30.75" width="35.93749999999999" height="24.75" as="geometry" />
        </mxCell>
        <mxCell id="vk6pO8AkL0Hi04yZMvHO-616" value="3.txt" style="group;fillColor=#ffcccc;strokeColor=#36393d;" vertex="1" connectable="0" parent="vk6pO8AkL0Hi04yZMvHO-613">
          <mxGeometry y="60.5" width="35.93749999999999" height="24.75" as="geometry" />
        </mxCell>
        <mxCell id="vk6pO8AkL0Hi04yZMvHO-509" value="" style="shape=flexArrow;endArrow=classic;html=1;endWidth=18;endSize=5.81;entryX=0;entryY=0.25;entryDx=0;entryDy=0;" edge="1" parent="1" target="vk6pO8AkL0Hi04yZMvHO-537">
          <mxGeometry width="50" height="50" relative="1" as="geometry">
            <mxPoint x="133" y="1688" as="sourcePoint" />
            <mxPoint x="295.4700000000001" y="1689" as="targetPoint" />
          </mxGeometry>
        </mxCell>
        <mxCell id="vk6pO8AkL0Hi04yZMvHO-621" value="" style="group" vertex="1" connectable="0" parent="1">
          <mxGeometry x="18.319999999999993" y="1930" width="100" height="50" as="geometry" />
        </mxCell>
        <mxCell id="vk6pO8AkL0Hi04yZMvHO-619" value="" style="shape=flexArrow;endArrow=classic;html=1;exitX=0.25;exitY=0;exitDx=0;exitDy=0;entryX=0.5;entryY=1;entryDx=0;entryDy=0;" edge="1" parent="vk6pO8AkL0Hi04yZMvHO-621" source="vk6pO8AkL0Hi04yZMvHO-592" target="vk6pO8AkL0Hi04yZMvHO-445">
          <mxGeometry width="50" height="50" relative="1" as="geometry">
            <mxPoint x="71.68" y="60" as="sourcePoint" />
            <mxPoint x="121.68" y="10" as="targetPoint" />
          </mxGeometry>
        </mxCell>
        <mxCell id="vk6pO8AkL0Hi04yZMvHO-620" value="&lt;b&gt;git revert HEAD&lt;br&gt;/&lt;br&gt;git reset --hard&lt;/b&gt;" style="text;html=1;align=center;verticalAlign=middle;resizable=0;points=[];autosize=1;rotation=0;" vertex="1" parent="vk6pO8AkL0Hi04yZMvHO-621">
          <mxGeometry width="100" height="50" as="geometry" />
        </mxCell>
        <mxCell id="vk6pO8AkL0Hi04yZMvHO-623" value="" style="group" vertex="1" connectable="0" parent="1">
          <mxGeometry x="263.31999999999994" y="1950" width="150" height="20" as="geometry" />
        </mxCell>
        <mxCell id="vk6pO8AkL0Hi04yZMvHO-582" value="&lt;b&gt;git commit -m &#39;提交注释&#39;&lt;/b&gt;" style="text;html=1;align=center;verticalAlign=middle;resizable=0;points=[];autosize=1;" vertex="1" parent="vk6pO8AkL0Hi04yZMvHO-623">
          <mxGeometry width="150" height="20" as="geometry" />
        </mxCell>
        <mxCell id="vk6pO8AkL0Hi04yZMvHO-581" value="" style="shape=flexArrow;endArrow=classic;html=1;entryX=0.75;entryY=0;entryDx=0;entryDy=0;exitX=0.5;exitY=1;exitDx=0;exitDy=0;" edge="1" parent="vk6pO8AkL0Hi04yZMvHO-623" source="vk6pO8AkL0Hi04yZMvHO-537" target="vk6pO8AkL0Hi04yZMvHO-592">
          <mxGeometry width="50" height="50" relative="1" as="geometry">
            <mxPoint x="216.68000000000006" y="10" as="sourcePoint" />
            <mxPoint x="252.21374999999966" y="60.23100000000022" as="targetPoint" />
          </mxGeometry>
        </mxCell>
        <mxCell id="vk6pO8AkL0Hi04yZMvHO-784" style="edgeStyle=orthogonalEdgeStyle;rounded=0;orthogonalLoop=1;jettySize=auto;html=1;entryX=0.5;entryY=0;entryDx=0;entryDy=0;" edge="1" parent="1" target="vk6pO8AkL0Hi04yZMvHO-785">
          <mxGeometry relative="1" as="geometry">
            <mxPoint x="-196.67999999999984" y="2760" as="targetPoint" />
            <mxPoint x="-197" y="2560" as="sourcePoint" />
          </mxGeometry>
        </mxCell>
        <mxCell id="vk6pO8AkL0Hi04yZMvHO-786" style="edgeStyle=orthogonalEdgeStyle;rounded=0;orthogonalLoop=1;jettySize=auto;html=1;" edge="1" parent="1" target="vk6pO8AkL0Hi04yZMvHO-805">
          <mxGeometry relative="1" as="geometry">
            <mxPoint x="90" y="3000" as="targetPoint" />
            <mxPoint x="90" y="2560" as="sourcePoint" />
          </mxGeometry>
        </mxCell>
        <mxCell id="vk6pO8AkL0Hi04yZMvHO-788" style="edgeStyle=orthogonalEdgeStyle;rounded=0;orthogonalLoop=1;jettySize=auto;html=1;entryX=0.5;entryY=0;entryDx=0;entryDy=0;" edge="1" parent="1" source="vk6pO8AkL0Hi04yZMvHO-785" target="vk6pO8AkL0Hi04yZMvHO-814">
          <mxGeometry relative="1" as="geometry">
            <mxPoint x="-197" y="3380" as="targetPoint" />
          </mxGeometry>
        </mxCell>
        <mxCell id="vk6pO8AkL0Hi04yZMvHO-785" value="&lt;span style=&quot;font-size: 13px&quot;&gt;谁是世界上最好的语言&lt;/span&gt;" style="rounded=1;whiteSpace=wrap;html=1;shadow=1;glass=0;comic=0;strokeColor=#000000;fillColor=#CCFFFF;" vertex="1" parent="1">
          <mxGeometry x="-276.68" y="2640" width="160" height="70" as="geometry" />
        </mxCell>
        <mxCell id="vk6pO8AkL0Hi04yZMvHO-794" style="edgeStyle=orthogonalEdgeStyle;rounded=0;orthogonalLoop=1;jettySize=auto;html=1;entryX=0.5;entryY=0;entryDx=0;entryDy=0;" edge="1" parent="1" source="vk6pO8AkL0Hi04yZMvHO-792" target="vk6pO8AkL0Hi04yZMvHO-795">
          <mxGeometry relative="1" as="geometry">
            <mxPoint x="413" y="2950" as="targetPoint" />
          </mxGeometry>
        </mxCell>
        <mxCell id="vk6pO8AkL0Hi04yZMvHO-792" value="&lt;span style=&quot;font-size: 13px&quot;&gt;谁是世界上最好的语言&lt;/span&gt;" style="rounded=1;whiteSpace=wrap;html=1;shadow=1;glass=0;comic=0;strokeColor=#000000;fillColor=#FFFFCC;" vertex="1" parent="1">
          <mxGeometry x="333" y="2740" width="160" height="70" as="geometry" />
        </mxCell>
        <mxCell id="vk6pO8AkL0Hi04yZMvHO-799" style="edgeStyle=orthogonalEdgeStyle;rounded=0;orthogonalLoop=1;jettySize=auto;html=1;exitX=0.5;exitY=1;exitDx=0;exitDy=0;entryX=0.5;entryY=0;entryDx=0;entryDy=0;" edge="1" parent="1" source="vk6pO8AkL0Hi04yZMvHO-795" target="vk6pO8AkL0Hi04yZMvHO-797">
          <mxGeometry relative="1" as="geometry" />
        </mxCell>
        <mxCell id="vk6pO8AkL0Hi04yZMvHO-795" value="&lt;span style=&quot;font-size: 13px&quot;&gt;谁是世界上最好的语言&lt;br&gt;PHP&lt;br&gt;&lt;/span&gt;" style="rounded=1;whiteSpace=wrap;html=1;shadow=1;glass=0;comic=0;strokeColor=#36393d;fillColor=#FFFFCC;" vertex="1" parent="1">
          <mxGeometry x="333" y="2860" width="160" height="70" as="geometry" />
        </mxCell>
        <mxCell id="vk6pO8AkL0Hi04yZMvHO-800" style="edgeStyle=orthogonalEdgeStyle;rounded=0;orthogonalLoop=1;jettySize=auto;html=1;exitX=0.5;exitY=1;exitDx=0;exitDy=0;" edge="1" parent="1" source="vk6pO8AkL0Hi04yZMvHO-797" target="vk6pO8AkL0Hi04yZMvHO-798">
          <mxGeometry relative="1" as="geometry" />
        </mxCell>
        <mxCell id="vk6pO8AkL0Hi04yZMvHO-797" value="&lt;span style=&quot;font-size: 13px&quot;&gt;谁是世界上最好的语言&lt;br&gt;PHP是世界上&lt;br&gt;&lt;/span&gt;" style="rounded=1;whiteSpace=wrap;html=1;shadow=1;glass=0;comic=0;strokeColor=#000000;fillColor=#FFFFCC;" vertex="1" parent="1">
          <mxGeometry x="333" y="3000" width="160" height="70" as="geometry" />
        </mxCell>
        <mxCell id="vk6pO8AkL0Hi04yZMvHO-798" value="&lt;span style=&quot;font-size: 13px&quot;&gt;谁是世界上最好的语言&lt;br&gt;PHP是世界上最好的语言&lt;br&gt;&lt;/span&gt;" style="rounded=1;whiteSpace=wrap;html=1;shadow=1;glass=0;comic=0;strokeColor=#000000;fillColor=#FFFFCC;" vertex="1" parent="1">
          <mxGeometry x="333" y="3210" width="160" height="70" as="geometry" />
        </mxCell>
        <mxCell id="vk6pO8AkL0Hi04yZMvHO-804" value="" style="endArrow=classic;html=1;exitX=1;exitY=0.75;exitDx=0;exitDy=0;entryX=0;entryY=0.5;entryDx=0;entryDy=0;" edge="1" parent="1" source="vk6pO8AkL0Hi04yZMvHO-785" target="vk6pO8AkL0Hi04yZMvHO-792">
          <mxGeometry width="50" height="50" relative="1" as="geometry">
            <mxPoint x="290" y="2890" as="sourcePoint" />
            <mxPoint x="340" y="2840" as="targetPoint" />
          </mxGeometry>
        </mxCell>
        <mxCell id="vk6pO8AkL0Hi04yZMvHO-808" style="edgeStyle=orthogonalEdgeStyle;rounded=0;orthogonalLoop=1;jettySize=auto;html=1;exitX=0.5;exitY=1;exitDx=0;exitDy=0;" edge="1" parent="1" source="vk6pO8AkL0Hi04yZMvHO-805" target="vk6pO8AkL0Hi04yZMvHO-807">
          <mxGeometry relative="1" as="geometry" />
        </mxCell>
        <mxCell id="vk6pO8AkL0Hi04yZMvHO-805" value="&lt;span style=&quot;font-size: 13px&quot;&gt;谁是世界上最好的语言&lt;br&gt;PHP&lt;br&gt;&lt;/span&gt;" style="rounded=1;whiteSpace=wrap;html=1;shadow=1;glass=0;comic=0;strokeColor=#000000;fillColor=#CCFFCC;" vertex="1" parent="1">
          <mxGeometry x="10" y="2920" width="160" height="70" as="geometry" />
        </mxCell>
        <mxCell id="vk6pO8AkL0Hi04yZMvHO-806" value="" style="endArrow=classic;html=1;exitX=0;exitY=0.5;exitDx=0;exitDy=0;entryX=1;entryY=0.5;entryDx=0;entryDy=0;" edge="1" parent="1" source="vk6pO8AkL0Hi04yZMvHO-795" target="vk6pO8AkL0Hi04yZMvHO-805">
          <mxGeometry width="50" height="50" relative="1" as="geometry">
            <mxPoint x="320" y="2950" as="sourcePoint" />
            <mxPoint x="370" y="2900" as="targetPoint" />
          </mxGeometry>
        </mxCell>
        <mxCell id="vk6pO8AkL0Hi04yZMvHO-810" style="edgeStyle=orthogonalEdgeStyle;rounded=0;orthogonalLoop=1;jettySize=auto;html=1;entryX=0.5;entryY=0;entryDx=0;entryDy=0;" edge="1" parent="1" source="vk6pO8AkL0Hi04yZMvHO-807" target="vk6pO8AkL0Hi04yZMvHO-811">
          <mxGeometry relative="1" as="geometry">
            <mxPoint x="90" y="3300" as="targetPoint" />
          </mxGeometry>
        </mxCell>
        <mxCell id="vk6pO8AkL0Hi04yZMvHO-807" value="&lt;span style=&quot;font-size: 13px&quot;&gt;谁是世界上最好的语言&lt;/span&gt;&lt;br style=&quot;font-size: 13px&quot;&gt;&lt;span style=&quot;font-size: 13px&quot;&gt;PHP是世界上&lt;/span&gt;&lt;span style=&quot;font-size: 13px&quot;&gt;&lt;br&gt;&lt;/span&gt;" style="rounded=1;whiteSpace=wrap;html=1;shadow=1;glass=0;comic=0;strokeColor=#000000;fillColor=#CCFFCC;" vertex="1" parent="1">
          <mxGeometry x="10" y="3060" width="160" height="70" as="geometry" />
        </mxCell>
        <mxCell id="vk6pO8AkL0Hi04yZMvHO-809" value="" style="endArrow=classic;html=1;entryX=1;entryY=0.5;entryDx=0;entryDy=0;exitX=0;exitY=0.5;exitDx=0;exitDy=0;" edge="1" parent="1" source="vk6pO8AkL0Hi04yZMvHO-797" target="vk6pO8AkL0Hi04yZMvHO-807">
          <mxGeometry width="50" height="50" relative="1" as="geometry">
            <mxPoint x="310" y="3170" as="sourcePoint" />
            <mxPoint x="360" y="3120" as="targetPoint" />
          </mxGeometry>
        </mxCell>
        <mxCell id="vk6pO8AkL0Hi04yZMvHO-811" value="&lt;span style=&quot;font-size: 13px&quot;&gt;谁是世界上最好的语言&lt;br&gt;PHP是世界上最好的语言&lt;br&gt;&lt;/span&gt;" style="rounded=1;whiteSpace=wrap;html=1;shadow=1;glass=0;comic=0;strokeColor=#000000;fillColor=#CCFFCC;" vertex="1" parent="1">
          <mxGeometry x="10" y="3230" width="160" height="70" as="geometry" />
        </mxCell>
        <mxCell id="vk6pO8AkL0Hi04yZMvHO-813" value="" style="endArrow=classic;html=1;exitX=-0.024;exitY=0.609;exitDx=0;exitDy=0;exitPerimeter=0;entryX=1;entryY=0.5;entryDx=0;entryDy=0;" edge="1" parent="1" source="vk6pO8AkL0Hi04yZMvHO-798" target="vk6pO8AkL0Hi04yZMvHO-811">
          <mxGeometry width="50" height="50" relative="1" as="geometry">
            <mxPoint x="360" y="3400" as="sourcePoint" />
            <mxPoint x="410" y="3350" as="targetPoint" />
          </mxGeometry>
        </mxCell>
        <mxCell id="vk6pO8AkL0Hi04yZMvHO-814" value="&lt;span style=&quot;font-size: 13px&quot;&gt;谁是世界上最好的语言&lt;br&gt;PHP是世界上最好的语言&lt;br&gt;&lt;/span&gt;" style="rounded=1;whiteSpace=wrap;html=1;shadow=1;glass=0;comic=0;strokeColor=#000000;fillColor=#CCFFFF;" vertex="1" parent="1">
          <mxGeometry x="-276.68" y="3380" width="160" height="70" as="geometry" />
        </mxCell>
        <mxCell id="vk6pO8AkL0Hi04yZMvHO-822" value="&lt;b style=&quot;background-color: rgb(255 , 0 , 0)&quot;&gt;&lt;font color=&quot;#ffff00&quot;&gt;最终效果&lt;/font&gt;&lt;/b&gt;&lt;br&gt;&lt;span style=&quot;font-size: 13px&quot;&gt;谁是世界上最好的语言&lt;/span&gt;&lt;br style=&quot;font-size: 13px&quot;&gt;&lt;span style=&quot;font-size: 13px&quot;&gt;PHP是世界上最好的语言&lt;/span&gt;" style="rounded=1;whiteSpace=wrap;html=1;shadow=1;glass=0;comic=0;strokeColor=#000000;fillColor=#ffffff;" vertex="1" parent="1">
          <mxGeometry x="290.01" y="2410" width="250" height="100" as="geometry" />
        </mxCell>
        <mxCell id="vk6pO8AkL0Hi04yZMvHO-823" style="edgeStyle=orthogonalEdgeStyle;rounded=0;orthogonalLoop=1;jettySize=auto;html=1;entryX=0.5;entryY=0;entryDx=0;entryDy=0;" edge="1" parent="1" target="vk6pO8AkL0Hi04yZMvHO-826">
          <mxGeometry relative="1" as="geometry">
            <mxPoint x="-186.67999999999984" y="3880" as="targetPoint" />
            <mxPoint x="-187" y="3680" as="sourcePoint" />
          </mxGeometry>
        </mxCell>
        <mxCell id="vk6pO8AkL0Hi04yZMvHO-824" style="edgeStyle=orthogonalEdgeStyle;rounded=0;orthogonalLoop=1;jettySize=auto;html=1;" edge="1" parent="1" target="vk6pO8AkL0Hi04yZMvHO-836">
          <mxGeometry relative="1" as="geometry">
            <mxPoint x="387.19" y="4130" as="targetPoint" />
            <mxPoint x="387.19" y="3690" as="sourcePoint" />
          </mxGeometry>
        </mxCell>
        <mxCell id="vk6pO8AkL0Hi04yZMvHO-825" style="edgeStyle=orthogonalEdgeStyle;rounded=0;orthogonalLoop=1;jettySize=auto;html=1;entryX=0.5;entryY=0;entryDx=0;entryDy=0;" edge="1" parent="1" source="vk6pO8AkL0Hi04yZMvHO-826" target="vk6pO8AkL0Hi04yZMvHO-852">
          <mxGeometry relative="1" as="geometry">
            <mxPoint x="-187" y="4100" as="targetPoint" />
          </mxGeometry>
        </mxCell>
        <mxCell id="vk6pO8AkL0Hi04yZMvHO-826" value="&lt;span style=&quot;font-size: 13px&quot;&gt;谁是世界上最好的语言&lt;/span&gt;" style="rounded=1;whiteSpace=wrap;html=1;shadow=1;glass=0;comic=0;strokeColor=#000000;fillColor=#CCFFFF;" vertex="1" parent="1">
          <mxGeometry x="-266.68" y="3760" width="160" height="70" as="geometry" />
        </mxCell>
        <mxCell id="vk6pO8AkL0Hi04yZMvHO-827" style="edgeStyle=orthogonalEdgeStyle;rounded=0;orthogonalLoop=1;jettySize=auto;html=1;entryX=0.5;entryY=0;entryDx=0;entryDy=0;" edge="1" parent="1" source="vk6pO8AkL0Hi04yZMvHO-828" target="vk6pO8AkL0Hi04yZMvHO-830">
          <mxGeometry relative="1" as="geometry">
            <mxPoint x="710.19" y="4080" as="targetPoint" />
          </mxGeometry>
        </mxCell>
        <mxCell id="vk6pO8AkL0Hi04yZMvHO-828" value="&lt;span style=&quot;font-size: 13px&quot;&gt;谁是世界上最好的语言&lt;/span&gt;" style="rounded=1;whiteSpace=wrap;html=1;shadow=1;glass=0;comic=0;strokeColor=#000000;fillColor=#FFFFCC;" vertex="1" parent="1">
          <mxGeometry x="630.19" y="3830" width="160" height="70" as="geometry" />
        </mxCell>
        <mxCell id="vk6pO8AkL0Hi04yZMvHO-829" style="edgeStyle=orthogonalEdgeStyle;rounded=0;orthogonalLoop=1;jettySize=auto;html=1;exitX=0.5;exitY=1;exitDx=0;exitDy=0;entryX=0.5;entryY=0;entryDx=0;entryDy=0;" edge="1" parent="1" source="vk6pO8AkL0Hi04yZMvHO-830" target="vk6pO8AkL0Hi04yZMvHO-832">
          <mxGeometry relative="1" as="geometry" />
        </mxCell>
        <mxCell id="vk6pO8AkL0Hi04yZMvHO-830" value="&lt;span style=&quot;font-size: 13px&quot;&gt;谁是世界上最好的语言&lt;br&gt;PHP&lt;br&gt;&lt;/span&gt;" style="rounded=1;whiteSpace=wrap;html=1;shadow=1;glass=0;comic=0;strokeColor=#36393d;fillColor=#FFFFCC;" vertex="1" parent="1">
          <mxGeometry x="630.19" y="3990" width="160" height="70" as="geometry" />
        </mxCell>
        <mxCell id="vk6pO8AkL0Hi04yZMvHO-831" style="edgeStyle=orthogonalEdgeStyle;rounded=0;orthogonalLoop=1;jettySize=auto;html=1;exitX=0.5;exitY=1;exitDx=0;exitDy=0;" edge="1" parent="1" source="vk6pO8AkL0Hi04yZMvHO-832" target="vk6pO8AkL0Hi04yZMvHO-833">
          <mxGeometry relative="1" as="geometry" />
        </mxCell>
        <mxCell id="vk6pO8AkL0Hi04yZMvHO-832" value="&lt;span style=&quot;font-size: 13px&quot;&gt;谁是世界上最好的语言&lt;br&gt;PHP是世界上&lt;br&gt;&lt;/span&gt;" style="rounded=1;whiteSpace=wrap;html=1;shadow=1;glass=0;comic=0;strokeColor=#000000;fillColor=#FFFFCC;" vertex="1" parent="1">
          <mxGeometry x="630.19" y="4130" width="160" height="70" as="geometry" />
        </mxCell>
        <mxCell id="vk6pO8AkL0Hi04yZMvHO-833" value="&lt;span style=&quot;font-size: 13px&quot;&gt;谁是世界上最好的语言&lt;br&gt;PHP是世界上最好的语言&lt;br&gt;&lt;/span&gt;" style="rounded=1;whiteSpace=wrap;html=1;shadow=1;glass=0;comic=0;strokeColor=#000000;fillColor=#FFFFCC;" vertex="1" parent="1">
          <mxGeometry x="630.19" y="4290" width="160" height="70" as="geometry" />
        </mxCell>
        <mxCell id="vk6pO8AkL0Hi04yZMvHO-834" value="" style="endArrow=classic;html=1;exitX=1;exitY=0.75;exitDx=0;exitDy=0;entryX=0;entryY=0.5;entryDx=0;entryDy=0;" edge="1" parent="1" source="vk6pO8AkL0Hi04yZMvHO-826" target="vk6pO8AkL0Hi04yZMvHO-828">
          <mxGeometry width="50" height="50" relative="1" as="geometry">
            <mxPoint x="300" y="4010" as="sourcePoint" />
            <mxPoint x="350" y="3960" as="targetPoint" />
          </mxGeometry>
        </mxCell>
        <mxCell id="vk6pO8AkL0Hi04yZMvHO-835" style="edgeStyle=orthogonalEdgeStyle;rounded=0;orthogonalLoop=1;jettySize=auto;html=1;exitX=0.5;exitY=1;exitDx=0;exitDy=0;" edge="1" parent="1" source="vk6pO8AkL0Hi04yZMvHO-836" target="vk6pO8AkL0Hi04yZMvHO-839">
          <mxGeometry relative="1" as="geometry" />
        </mxCell>
        <mxCell id="vk6pO8AkL0Hi04yZMvHO-836" value="&lt;span style=&quot;font-size: 13px&quot;&gt;谁是世界上最好的语言&lt;br&gt;PHP&lt;br&gt;&lt;/span&gt;" style="rounded=1;whiteSpace=wrap;html=1;shadow=1;glass=0;comic=0;strokeColor=#000000;fillColor=#CCFFCC;" vertex="1" parent="1">
          <mxGeometry x="307.19" y="4050" width="160" height="70" as="geometry" />
        </mxCell>
        <mxCell id="vk6pO8AkL0Hi04yZMvHO-837" value="" style="endArrow=classic;html=1;exitX=0;exitY=0.5;exitDx=0;exitDy=0;entryX=1;entryY=0.5;entryDx=0;entryDy=0;" edge="1" parent="1" source="vk6pO8AkL0Hi04yZMvHO-830" target="vk6pO8AkL0Hi04yZMvHO-836">
          <mxGeometry width="50" height="50" relative="1" as="geometry">
            <mxPoint x="617.19" y="4080" as="sourcePoint" />
            <mxPoint x="667.19" y="4030" as="targetPoint" />
          </mxGeometry>
        </mxCell>
        <mxCell id="vk6pO8AkL0Hi04yZMvHO-838" style="edgeStyle=orthogonalEdgeStyle;rounded=0;orthogonalLoop=1;jettySize=auto;html=1;entryX=0.5;entryY=0;entryDx=0;entryDy=0;" edge="1" parent="1" source="vk6pO8AkL0Hi04yZMvHO-839" target="vk6pO8AkL0Hi04yZMvHO-841">
          <mxGeometry relative="1" as="geometry">
            <mxPoint x="387.19" y="4430" as="targetPoint" />
          </mxGeometry>
        </mxCell>
        <mxCell id="vk6pO8AkL0Hi04yZMvHO-839" value="&lt;span style=&quot;font-size: 13px&quot;&gt;谁是世界上最好的语言?&lt;/span&gt;&lt;br style=&quot;font-size: 13px&quot;&gt;&lt;span style=&quot;font-size: 13px&quot;&gt;PHP是世界上&lt;/span&gt;&lt;span style=&quot;font-size: 13px&quot;&gt;&lt;br&gt;&lt;/span&gt;" style="rounded=1;whiteSpace=wrap;html=1;shadow=1;glass=0;comic=0;strokeColor=#000000;fillColor=#CCFFCC;" vertex="1" parent="1">
          <mxGeometry x="307.19" y="4190" width="160" height="70" as="geometry" />
        </mxCell>
        <mxCell id="vk6pO8AkL0Hi04yZMvHO-841" value="&lt;span style=&quot;font-size: 13px&quot;&gt;谁是世界上最好的语言&lt;br&gt;PHP是世界上最好的语言&lt;br&gt;&lt;/span&gt;" style="rounded=1;whiteSpace=wrap;html=1;shadow=1;glass=0;comic=0;strokeColor=#000000;fillColor=#CCFFCC;" vertex="1" parent="1">
          <mxGeometry x="307.19" y="4350" width="160" height="70" as="geometry" />
        </mxCell>
        <mxCell id="vk6pO8AkL0Hi04yZMvHO-842" value="" style="endArrow=classic;html=1;exitX=-0.024;exitY=0.609;exitDx=0;exitDy=0;exitPerimeter=0;entryX=1;entryY=0.5;entryDx=0;entryDy=0;" edge="1" parent="1" source="vk6pO8AkL0Hi04yZMvHO-833" target="vk6pO8AkL0Hi04yZMvHO-841">
          <mxGeometry width="50" height="50" relative="1" as="geometry">
            <mxPoint x="657.19" y="4530" as="sourcePoint" />
            <mxPoint x="707.19" y="4480" as="targetPoint" />
          </mxGeometry>
        </mxCell>
        <mxCell id="vk6pO8AkL0Hi04yZMvHO-843" value="&lt;span style=&quot;font-size: 13px&quot;&gt;谁是世界上最好的语言?&lt;br&gt;PHP是世界上最好的语言&lt;br&gt;&lt;/span&gt;" style="rounded=1;whiteSpace=wrap;html=1;shadow=1;glass=0;comic=0;strokeColor=#000000;fillColor=#CCFFFF;" vertex="1" parent="1">
          <mxGeometry x="-266.68" y="4410" width="160" height="70" as="geometry" />
        </mxCell>
        <mxCell id="vk6pO8AkL0Hi04yZMvHO-849" style="edgeStyle=orthogonalEdgeStyle;rounded=0;orthogonalLoop=1;jettySize=auto;html=1;strokeColor=#000000;fontColor=#000000;entryX=0.5;entryY=0;entryDx=0;entryDy=0;" edge="1" parent="1" source="vk6pO8AkL0Hi04yZMvHO-846" target="vk6pO8AkL0Hi04yZMvHO-850">
          <mxGeometry relative="1" as="geometry">
            <mxPoint x="80" y="4120" as="targetPoint" />
          </mxGeometry>
        </mxCell>
        <mxCell id="vk6pO8AkL0Hi04yZMvHO-846" value="&lt;span style=&quot;font-size: 13px&quot;&gt;谁是世界上最好的语言&lt;/span&gt;" style="rounded=1;whiteSpace=wrap;html=1;shadow=1;glass=0;comic=0;strokeColor=#000000;fillColor=#FFCCCC;" vertex="1" parent="1">
          <mxGeometry y="3900" width="160" height="70" as="geometry" />
        </mxCell>
        <mxCell id="vk6pO8AkL0Hi04yZMvHO-848" value="" style="endArrow=classic;html=1;strokeColor=#000000;fontColor=#000000;entryX=0;entryY=0;entryDx=0;entryDy=0;exitX=1;exitY=1;exitDx=0;exitDy=0;" edge="1" parent="1" source="vk6pO8AkL0Hi04yZMvHO-826" target="vk6pO8AkL0Hi04yZMvHO-846">
          <mxGeometry width="50" height="50" relative="1" as="geometry">
            <mxPoint x="-140" y="3900" as="sourcePoint" />
            <mxPoint x="-90" y="3850" as="targetPoint" />
          </mxGeometry>
        </mxCell>
        <mxCell id="vk6pO8AkL0Hi04yZMvHO-850" value="&lt;span style=&quot;font-size: 13px&quot;&gt;谁是世界上最好的语言？&lt;/span&gt;" style="rounded=1;whiteSpace=wrap;html=1;shadow=1;glass=0;comic=0;strokeColor=#000000;fillColor=#FFCCCC;" vertex="1" parent="1">
          <mxGeometry y="4120" width="160" height="70" as="geometry" />
        </mxCell>
        <mxCell id="vk6pO8AkL0Hi04yZMvHO-854" style="edgeStyle=orthogonalEdgeStyle;rounded=0;orthogonalLoop=1;jettySize=auto;html=1;strokeColor=#000000;fontColor=#000000;" edge="1" parent="1" source="vk6pO8AkL0Hi04yZMvHO-852" target="vk6pO8AkL0Hi04yZMvHO-843">
          <mxGeometry relative="1" as="geometry" />
        </mxCell>
        <mxCell id="vk6pO8AkL0Hi04yZMvHO-852" value="&lt;span style=&quot;font-size: 13px&quot;&gt;谁是世界上最好的语言？&lt;/span&gt;" style="rounded=1;whiteSpace=wrap;html=1;shadow=1;glass=0;comic=0;strokeColor=#000000;fillColor=#CCFFFF;" vertex="1" parent="1">
          <mxGeometry x="-266.68" y="4240" width="160" height="70" as="geometry" />
        </mxCell>
        <mxCell id="vk6pO8AkL0Hi04yZMvHO-855" value="&lt;b style=&quot;background-color: rgb(255 , 0 , 0)&quot;&gt;&lt;font color=&quot;#ffff00&quot;&gt;最终效果&lt;/font&gt;&lt;/b&gt;&lt;br&gt;&lt;span style=&quot;font-size: 13px&quot;&gt;谁是世界上最好的语言&lt;/span&gt;&lt;br style=&quot;font-size: 13px&quot;&gt;&lt;span style=&quot;font-size: 13px&quot;&gt;PHP是世界上最好的语言&lt;/span&gt;" style="rounded=1;whiteSpace=wrap;html=1;shadow=1;glass=0;comic=0;strokeColor=#000000;fillColor=#ffffff;" vertex="1" parent="1">
          <mxGeometry x="587.19" y="3540" width="250" height="100" as="geometry" />
        </mxCell>
        <mxCell id="vk6pO8AkL0Hi04yZMvHO-856" value="&lt;font style=&quot;font-size: 16px&quot;&gt;&lt;b&gt;build分支&lt;/b&gt;&lt;/font&gt;" style="text;html=1;align=center;verticalAlign=middle;resizable=0;points=[];autosize=1;fontColor=#000000;strokeWidth=6;" vertex="1" parent="1">
          <mxGeometry x="-241.68" y="2531" width="90" height="20" as="geometry" />
        </mxCell>
        <mxCell id="vk6pO8AkL0Hi04yZMvHO-857" value="&lt;span style=&quot;font-size: 16px&quot;&gt;&lt;b&gt;release分支&lt;/b&gt;&lt;/span&gt;" style="text;html=1;align=center;verticalAlign=middle;resizable=0;points=[];autosize=1;fontColor=#000000;strokeWidth=6;" vertex="1" parent="1">
          <mxGeometry x="45" y="2531" width="100" height="20" as="geometry" />
        </mxCell>
        <mxCell id="vk6pO8AkL0Hi04yZMvHO-858" value="" style="endArrow=classic;html=1;strokeColor=#000000;strokeWidth=1;fontColor=#000000;" edge="1" parent="1" target="vk6pO8AkL0Hi04yZMvHO-792">
          <mxGeometry width="50" height="50" relative="1" as="geometry">
            <mxPoint x="413" y="2560" as="sourcePoint" />
            <mxPoint x="460" y="2530" as="targetPoint" />
          </mxGeometry>
        </mxCell>
        <mxCell id="vk6pO8AkL0Hi04yZMvHO-859" value="&lt;span style=&quot;font-size: 16px&quot;&gt;&lt;b&gt;feature_v0.1分支&lt;/b&gt;&lt;/span&gt;" style="text;html=1;align=center;verticalAlign=middle;resizable=0;points=[];autosize=1;fontColor=#000000;strokeWidth=6;" vertex="1" parent="1">
          <mxGeometry x="340" y="2531" width="140" height="20" as="geometry" />
        </mxCell>
        <mxCell id="vk6pO8AkL0Hi04yZMvHO-860" value="&lt;font style=&quot;font-size: 16px&quot;&gt;&lt;b&gt;build分支&lt;/b&gt;&lt;/font&gt;" style="text;html=1;align=center;verticalAlign=middle;resizable=0;points=[];autosize=1;fontColor=#000000;strokeWidth=6;" vertex="1" parent="1">
          <mxGeometry x="-231.68" y="3660" width="90" height="20" as="geometry" />
        </mxCell>
        <mxCell id="vk6pO8AkL0Hi04yZMvHO-861" value="&lt;font style=&quot;font-size: 16px&quot;&gt;&lt;b&gt;release分支&lt;/b&gt;&lt;/font&gt;" style="text;html=1;align=center;verticalAlign=middle;resizable=0;points=[];autosize=1;fontColor=#000000;strokeWidth=6;" vertex="1" parent="1">
          <mxGeometry x="337.19" y="3670" width="100" height="20" as="geometry" />
        </mxCell>
        <mxCell id="vk6pO8AkL0Hi04yZMvHO-862" value="&lt;font style=&quot;font-size: 16px&quot;&gt;&lt;b&gt;feature_0.1分支&lt;/b&gt;&lt;/font&gt;" style="text;html=1;align=center;verticalAlign=middle;resizable=0;points=[];autosize=1;fontColor=#000000;strokeWidth=6;" vertex="1" parent="1">
          <mxGeometry x="645.19" y="3670" width="130" height="20" as="geometry" />
        </mxCell>
        <mxCell id="vk6pO8AkL0Hi04yZMvHO-863" value="" style="endArrow=classic;html=1;strokeColor=#000000;strokeWidth=1;fontColor=#000000;entryX=0.5;entryY=0;entryDx=0;entryDy=0;" edge="1" parent="1" target="vk6pO8AkL0Hi04yZMvHO-828">
          <mxGeometry width="50" height="50" relative="1" as="geometry">
            <mxPoint x="710.19" y="3690" as="sourcePoint" />
            <mxPoint x="757.19" y="3760" as="targetPoint" />
          </mxGeometry>
        </mxCell>
        <mxCell id="vk6pO8AkL0Hi04yZMvHO-864" value="" style="endArrow=classic;html=1;strokeColor=#000000;strokeWidth=1;fontColor=#000000;entryX=0.5;entryY=0;entryDx=0;entryDy=0;" edge="1" parent="1" target="vk6pO8AkL0Hi04yZMvHO-846">
          <mxGeometry width="50" height="50" relative="1" as="geometry">
            <mxPoint x="80" y="3680" as="sourcePoint" />
            <mxPoint x="120" y="3680" as="targetPoint" />
          </mxGeometry>
        </mxCell>
        <mxCell id="vk6pO8AkL0Hi04yZMvHO-865" value="&lt;span style=&quot;font-size: 16px&quot;&gt;&lt;b&gt;hotfix分支&lt;/b&gt;&lt;/span&gt;" style="text;html=1;align=center;verticalAlign=middle;resizable=0;points=[];autosize=1;fontColor=#000000;strokeWidth=6;" vertex="1" parent="1">
          <mxGeometry x="35" y="3660" width="90" height="20" as="geometry" />
        </mxCell>
        <mxCell id="vk6pO8AkL0Hi04yZMvHO-866" style="edgeStyle=orthogonalEdgeStyle;rounded=0;orthogonalLoop=1;jettySize=auto;html=1;entryX=0.5;entryY=0;entryDx=0;entryDy=0;" edge="1" parent="1" target="vk6pO8AkL0Hi04yZMvHO-869">
          <mxGeometry relative="1" as="geometry">
            <mxPoint x="-186.67999999999984" y="4993" as="targetPoint" />
            <mxPoint x="-187" y="4793" as="sourcePoint" />
          </mxGeometry>
        </mxCell>
        <mxCell id="vk6pO8AkL0Hi04yZMvHO-867" style="edgeStyle=orthogonalEdgeStyle;rounded=0;orthogonalLoop=1;jettySize=auto;html=1;" edge="1" parent="1" target="vk6pO8AkL0Hi04yZMvHO-879">
          <mxGeometry relative="1" as="geometry">
            <mxPoint x="240" y="5233" as="targetPoint" />
            <mxPoint x="240" y="4793" as="sourcePoint" />
          </mxGeometry>
        </mxCell>
        <mxCell id="vk6pO8AkL0Hi04yZMvHO-868" style="edgeStyle=orthogonalEdgeStyle;rounded=0;orthogonalLoop=1;jettySize=auto;html=1;entryX=0.5;entryY=0;entryDx=0;entryDy=0;" edge="1" parent="1" source="vk6pO8AkL0Hi04yZMvHO-869" target="vk6pO8AkL0Hi04yZMvHO-893">
          <mxGeometry relative="1" as="geometry">
            <mxPoint x="-187" y="5213" as="targetPoint" />
          </mxGeometry>
        </mxCell>
        <mxCell id="vk6pO8AkL0Hi04yZMvHO-869" value="&lt;span style=&quot;font-size: 13px&quot;&gt;谁是世界上最好的语言&lt;/span&gt;" style="rounded=1;whiteSpace=wrap;html=1;shadow=1;glass=0;comic=0;strokeColor=#000000;fillColor=#CCFFFF;" vertex="1" parent="1">
          <mxGeometry x="-266.68" y="4873" width="160" height="70" as="geometry" />
        </mxCell>
        <mxCell id="vk6pO8AkL0Hi04yZMvHO-870" style="edgeStyle=orthogonalEdgeStyle;rounded=0;orthogonalLoop=1;jettySize=auto;html=1;entryX=0.5;entryY=0;entryDx=0;entryDy=0;exitX=0.5;exitY=1;exitDx=0;exitDy=0;" edge="1" parent="1" source="vk6pO8AkL0Hi04yZMvHO-871" target="vk6pO8AkL0Hi04yZMvHO-873">
          <mxGeometry relative="1" as="geometry">
            <mxPoint x="561.35" y="5280" as="targetPoint" />
            <mxPoint x="561.35" y="5100" as="sourcePoint" />
          </mxGeometry>
        </mxCell>
        <mxCell id="vk6pO8AkL0Hi04yZMvHO-871" value="&lt;span style=&quot;font-size: 13px&quot;&gt;谁是世界上最好的语言&lt;/span&gt;" style="rounded=1;whiteSpace=wrap;html=1;shadow=1;glass=0;comic=0;strokeColor=#000000;fillColor=#FFFFCC;" vertex="1" parent="1">
          <mxGeometry x="481.35" y="4933" width="160" height="70" as="geometry" />
        </mxCell>
        <mxCell id="vk6pO8AkL0Hi04yZMvHO-872" style="edgeStyle=orthogonalEdgeStyle;rounded=0;orthogonalLoop=1;jettySize=auto;html=1;exitX=0.5;exitY=1;exitDx=0;exitDy=0;entryX=0.5;entryY=0;entryDx=0;entryDy=0;" edge="1" parent="1" source="vk6pO8AkL0Hi04yZMvHO-873" target="vk6pO8AkL0Hi04yZMvHO-875">
          <mxGeometry relative="1" as="geometry" />
        </mxCell>
        <mxCell id="vk6pO8AkL0Hi04yZMvHO-873" value="&lt;span style=&quot;font-size: 13px&quot;&gt;谁是世界上最好的语言&lt;br&gt;PHP&lt;br&gt;&lt;/span&gt;" style="rounded=1;whiteSpace=wrap;html=1;shadow=1;glass=0;comic=0;strokeColor=#36393d;fillColor=#FFFFCC;" vertex="1" parent="1">
          <mxGeometry x="481.35" y="5130" width="160" height="70" as="geometry" />
        </mxCell>
        <mxCell id="vk6pO8AkL0Hi04yZMvHO-874" style="edgeStyle=orthogonalEdgeStyle;rounded=0;orthogonalLoop=1;jettySize=auto;html=1;exitX=0.5;exitY=1;exitDx=0;exitDy=0;" edge="1" parent="1" source="vk6pO8AkL0Hi04yZMvHO-875" target="vk6pO8AkL0Hi04yZMvHO-876">
          <mxGeometry relative="1" as="geometry" />
        </mxCell>
        <mxCell id="vk6pO8AkL0Hi04yZMvHO-875" value="&lt;span style=&quot;font-size: 13px&quot;&gt;谁是世界上最好的语言&lt;br&gt;PHP是世界上&lt;br&gt;&lt;/span&gt;" style="rounded=1;whiteSpace=wrap;html=1;shadow=1;glass=0;comic=0;strokeColor=#000000;fillColor=#FFFFCC;" vertex="1" parent="1">
          <mxGeometry x="481.35" y="5340" width="160" height="70" as="geometry" />
        </mxCell>
        <mxCell id="vk6pO8AkL0Hi04yZMvHO-876" value="&lt;span style=&quot;font-size: 13px&quot;&gt;谁是世界上最好的语言&lt;br&gt;PHP是世界上最好的语言&lt;br&gt;&lt;/span&gt;" style="rounded=1;whiteSpace=wrap;html=1;shadow=1;glass=0;comic=0;strokeColor=#000000;fillColor=#FFFFCC;" vertex="1" parent="1">
          <mxGeometry x="481.35" y="5670" width="160" height="70" as="geometry" />
        </mxCell>
        <mxCell id="vk6pO8AkL0Hi04yZMvHO-877" value="" style="endArrow=classic;html=1;exitX=1;exitY=0.5;exitDx=0;exitDy=0;entryX=0;entryY=0.5;entryDx=0;entryDy=0;" edge="1" parent="1" source="vk6pO8AkL0Hi04yZMvHO-869" target="vk6pO8AkL0Hi04yZMvHO-871">
          <mxGeometry width="50" height="50" relative="1" as="geometry">
            <mxPoint x="300" y="5123" as="sourcePoint" />
            <mxPoint x="350" y="5073" as="targetPoint" />
          </mxGeometry>
        </mxCell>
        <mxCell id="vk6pO8AkL0Hi04yZMvHO-878" style="edgeStyle=orthogonalEdgeStyle;rounded=0;orthogonalLoop=1;jettySize=auto;html=1;exitX=0.5;exitY=1;exitDx=0;exitDy=0;" edge="1" parent="1" source="vk6pO8AkL0Hi04yZMvHO-879" target="vk6pO8AkL0Hi04yZMvHO-882">
          <mxGeometry relative="1" as="geometry" />
        </mxCell>
        <mxCell id="vk6pO8AkL0Hi04yZMvHO-879" value="&lt;span style=&quot;font-size: 13px&quot;&gt;谁是世界上最好的语言&lt;br&gt;PHP&lt;br&gt;&lt;/span&gt;" style="rounded=1;whiteSpace=wrap;html=1;shadow=1;glass=0;comic=0;strokeColor=#000000;fillColor=#CCFFCC;" vertex="1" parent="1">
          <mxGeometry x="158.75" y="5220" width="160" height="70" as="geometry" />
        </mxCell>
        <mxCell id="vk6pO8AkL0Hi04yZMvHO-880" value="" style="endArrow=classic;html=1;exitX=0;exitY=0.5;exitDx=0;exitDy=0;entryX=1;entryY=0.5;entryDx=0;entryDy=0;" edge="1" parent="1" source="vk6pO8AkL0Hi04yZMvHO-873" target="vk6pO8AkL0Hi04yZMvHO-879">
          <mxGeometry width="50" height="50" relative="1" as="geometry">
            <mxPoint x="468.35" y="5280" as="sourcePoint" />
            <mxPoint x="518.35" y="5230" as="targetPoint" />
          </mxGeometry>
        </mxCell>
        <mxCell id="vk6pO8AkL0Hi04yZMvHO-928" style="edgeStyle=orthogonalEdgeStyle;rounded=0;orthogonalLoop=1;jettySize=auto;html=1;exitX=0.5;exitY=1;exitDx=0;exitDy=0;strokeColor=#000000;strokeWidth=1;fontColor=#000000;" edge="1" parent="1" source="vk6pO8AkL0Hi04yZMvHO-882" target="vk6pO8AkL0Hi04yZMvHO-925">
          <mxGeometry relative="1" as="geometry" />
        </mxCell>
        <mxCell id="vk6pO8AkL0Hi04yZMvHO-882" value="&lt;span style=&quot;font-size: 13px&quot;&gt;谁是世界上最好的语言&lt;/span&gt;&lt;br style=&quot;font-size: 13px&quot;&gt;&lt;span style=&quot;font-size: 13px&quot;&gt;PHP是世界上&lt;/span&gt;&lt;span style=&quot;font-size: 13px&quot;&gt;&lt;br&gt;&lt;/span&gt;" style="rounded=1;whiteSpace=wrap;html=1;shadow=1;glass=0;comic=0;strokeColor=#000000;fillColor=#CCFFCC;" vertex="1" parent="1">
          <mxGeometry x="158.35" y="5390" width="160" height="70" as="geometry" />
        </mxCell>
        <mxCell id="vk6pO8AkL0Hi04yZMvHO-883" value="" style="endArrow=classic;html=1;entryX=1;entryY=0.5;entryDx=0;entryDy=0;exitX=0;exitY=0.5;exitDx=0;exitDy=0;" edge="1" parent="1" source="vk6pO8AkL0Hi04yZMvHO-875" target="vk6pO8AkL0Hi04yZMvHO-882">
          <mxGeometry width="50" height="50" relative="1" as="geometry">
            <mxPoint x="458.35" y="5500" as="sourcePoint" />
            <mxPoint x="508.34999999999997" y="5450" as="targetPoint" />
          </mxGeometry>
        </mxCell>
        <mxCell id="vk6pO8AkL0Hi04yZMvHO-932" style="edgeStyle=orthogonalEdgeStyle;rounded=0;orthogonalLoop=1;jettySize=auto;html=1;exitX=0.5;exitY=1;exitDx=0;exitDy=0;strokeColor=#000000;strokeWidth=1;fontColor=#000000;entryX=0.5;entryY=0;entryDx=0;entryDy=0;" edge="1" parent="1" source="vk6pO8AkL0Hi04yZMvHO-884" target="vk6pO8AkL0Hi04yZMvHO-933">
          <mxGeometry relative="1" as="geometry">
            <mxPoint x="239" y="5950" as="targetPoint" />
          </mxGeometry>
        </mxCell>
        <mxCell id="vk6pO8AkL0Hi04yZMvHO-884" value="&lt;span style=&quot;font-size: 13px&quot;&gt;谁是世界上最好的语言&lt;/span&gt;&lt;br style=&quot;font-size: 13px&quot;&gt;&lt;span style=&quot;font-size: 13px&quot;&gt;PHP是世界上最好的语言&lt;/span&gt;&lt;span style=&quot;font-size: 13px&quot;&gt;&lt;br&gt;&lt;/span&gt;&lt;span style=&quot;font-size: 13px&quot;&gt;谁是世界上最好的操作系统&lt;/span&gt;&lt;span style=&quot;font-size: 13px&quot;&gt;&lt;br&gt;&lt;/span&gt;" style="rounded=1;whiteSpace=wrap;html=1;shadow=1;glass=0;comic=0;strokeColor=#000000;fillColor=#CCFFCC;" vertex="1" parent="1">
          <mxGeometry x="159.18" y="5740" width="160" height="70" as="geometry" />
        </mxCell>
        <mxCell id="vk6pO8AkL0Hi04yZMvHO-885" value="" style="endArrow=classic;html=1;exitX=-0.024;exitY=0.609;exitDx=0;exitDy=0;exitPerimeter=0;entryX=1;entryY=0.5;entryDx=0;entryDy=0;" edge="1" parent="1" source="vk6pO8AkL0Hi04yZMvHO-876" target="vk6pO8AkL0Hi04yZMvHO-884">
          <mxGeometry width="50" height="50" relative="1" as="geometry">
            <mxPoint x="508.34999999999997" y="5730" as="sourcePoint" />
            <mxPoint x="558.35" y="5680" as="targetPoint" />
          </mxGeometry>
        </mxCell>
        <mxCell id="vk6pO8AkL0Hi04yZMvHO-935" style="edgeStyle=orthogonalEdgeStyle;rounded=0;orthogonalLoop=1;jettySize=auto;html=1;strokeColor=#000000;strokeWidth=1;fontColor=#000000;entryX=0.5;entryY=0;entryDx=0;entryDy=0;" edge="1" parent="1" source="vk6pO8AkL0Hi04yZMvHO-886" target="vk6pO8AkL0Hi04yZMvHO-937">
          <mxGeometry relative="1" as="geometry">
            <mxPoint x="-188.32999999999993" y="6380" as="targetPoint" />
          </mxGeometry>
        </mxCell>
        <mxCell id="vk6pO8AkL0Hi04yZMvHO-886" value="&lt;span style=&quot;font-size: 13px&quot;&gt;谁是世界上最好的语言?&lt;br&gt;PHP是世界上最好的语言&lt;br&gt;&lt;/span&gt;" style="rounded=1;whiteSpace=wrap;html=1;shadow=1;glass=0;comic=0;strokeColor=#000000;fillColor=#CCFFFF;" vertex="1" parent="1">
          <mxGeometry x="-268.33" y="6010" width="160" height="70" as="geometry" />
        </mxCell>
        <mxCell id="vk6pO8AkL0Hi04yZMvHO-892" style="edgeStyle=orthogonalEdgeStyle;rounded=0;orthogonalLoop=1;jettySize=auto;html=1;strokeColor=#000000;fontColor=#000000;" edge="1" parent="1" source="vk6pO8AkL0Hi04yZMvHO-893" target="vk6pO8AkL0Hi04yZMvHO-886">
          <mxGeometry relative="1" as="geometry" />
        </mxCell>
        <mxCell id="vk6pO8AkL0Hi04yZMvHO-893" value="&lt;span style=&quot;font-size: 13px&quot;&gt;谁是世界上最好的语言？&lt;/span&gt;" style="rounded=1;whiteSpace=wrap;html=1;shadow=1;glass=0;comic=0;strokeColor=#000000;fillColor=#CCFFFF;" vertex="1" parent="1">
          <mxGeometry x="-268.33" y="5450" width="160" height="70" as="geometry" />
        </mxCell>
        <mxCell id="vk6pO8AkL0Hi04yZMvHO-895" value="&lt;b style=&quot;background-color: rgb(255 , 0 , 0)&quot;&gt;&lt;font color=&quot;#ffff00&quot;&gt;最终效果&lt;/font&gt;&lt;/b&gt;&lt;br&gt;&lt;span style=&quot;font-size: 13px&quot;&gt;谁是世界上最好的语言&lt;/span&gt;&lt;br style=&quot;font-size: 13px&quot;&gt;&lt;span style=&quot;font-size: 13px&quot;&gt;PHP是世界上最好的语言&lt;br&gt;&lt;/span&gt;" style="rounded=1;whiteSpace=wrap;html=1;shadow=1;glass=0;comic=0;strokeColor=#000000;fillColor=#ffffff;" vertex="1" parent="1">
          <mxGeometry x="453" y="4640" width="250" height="100" as="geometry" />
        </mxCell>
        <mxCell id="vk6pO8AkL0Hi04yZMvHO-896" value="&lt;font style=&quot;font-size: 16px&quot;&gt;&lt;b&gt;build分支&lt;/b&gt;&lt;/font&gt;" style="text;html=1;align=center;verticalAlign=middle;resizable=0;points=[];autosize=1;fontColor=#000000;strokeWidth=6;" vertex="1" parent="1">
          <mxGeometry x="-231.68" y="4773" width="90" height="20" as="geometry" />
        </mxCell>
        <mxCell id="vk6pO8AkL0Hi04yZMvHO-897" value="&lt;font style=&quot;font-size: 16px&quot;&gt;&lt;b&gt;release分支&lt;/b&gt;&lt;/font&gt;" style="text;html=1;align=center;verticalAlign=middle;resizable=0;points=[];autosize=1;fontColor=#000000;strokeWidth=6;" vertex="1" parent="1">
          <mxGeometry x="188.35" y="4773" width="100" height="20" as="geometry" />
        </mxCell>
        <mxCell id="vk6pO8AkL0Hi04yZMvHO-898" value="&lt;font style=&quot;font-size: 16px&quot;&gt;&lt;b&gt;feature_0.1分支&lt;/b&gt;&lt;/font&gt;" style="text;html=1;align=center;verticalAlign=middle;resizable=0;points=[];autosize=1;fontColor=#000000;strokeWidth=6;" vertex="1" parent="1">
          <mxGeometry x="498" y="4773" width="130" height="20" as="geometry" />
        </mxCell>
        <mxCell id="vk6pO8AkL0Hi04yZMvHO-899" value="" style="endArrow=classic;html=1;strokeColor=#000000;strokeWidth=1;fontColor=#000000;entryX=0.5;entryY=0;entryDx=0;entryDy=0;" edge="1" parent="1" target="vk6pO8AkL0Hi04yZMvHO-871">
          <mxGeometry width="50" height="50" relative="1" as="geometry">
            <mxPoint x="563" y="4793" as="sourcePoint" />
            <mxPoint x="610" y="4863" as="targetPoint" />
          </mxGeometry>
        </mxCell>
        <mxCell id="vk6pO8AkL0Hi04yZMvHO-902" style="edgeStyle=orthogonalEdgeStyle;rounded=0;orthogonalLoop=1;jettySize=auto;html=1;entryX=0.5;entryY=0;entryDx=0;entryDy=0;" edge="1" parent="1" source="vk6pO8AkL0Hi04yZMvHO-903" target="vk6pO8AkL0Hi04yZMvHO-905">
          <mxGeometry relative="1" as="geometry">
            <mxPoint x="848.3499999999999" y="5350" as="targetPoint" />
          </mxGeometry>
        </mxCell>
        <mxCell id="vk6pO8AkL0Hi04yZMvHO-903" value="&lt;span style=&quot;font-size: 13px&quot;&gt;谁是世界上最好的语言&lt;/span&gt;" style="rounded=1;whiteSpace=wrap;html=1;shadow=1;glass=0;comic=0;strokeColor=#000000;fillColor=#FFFF99;" vertex="1" parent="1">
          <mxGeometry x="762.5300000000001" y="5060" width="171.65" height="80" as="geometry" />
        </mxCell>
        <mxCell id="vk6pO8AkL0Hi04yZMvHO-924" style="edgeStyle=orthogonalEdgeStyle;rounded=0;orthogonalLoop=1;jettySize=auto;html=1;exitX=0.5;exitY=1;exitDx=0;exitDy=0;entryX=0.5;entryY=0;entryDx=0;entryDy=0;strokeColor=#000000;strokeWidth=1;fontColor=#000000;" edge="1" parent="1" source="vk6pO8AkL0Hi04yZMvHO-905" target="vk6pO8AkL0Hi04yZMvHO-921">
          <mxGeometry relative="1" as="geometry" />
        </mxCell>
        <mxCell id="vk6pO8AkL0Hi04yZMvHO-927" style="edgeStyle=orthogonalEdgeStyle;rounded=0;orthogonalLoop=1;jettySize=auto;html=1;exitX=0.5;exitY=1;exitDx=0;exitDy=0;entryX=1;entryY=0.5;entryDx=0;entryDy=0;strokeColor=#000000;strokeWidth=1;fontColor=#000000;" edge="1" parent="1" source="vk6pO8AkL0Hi04yZMvHO-905" target="vk6pO8AkL0Hi04yZMvHO-925">
          <mxGeometry relative="1" as="geometry" />
        </mxCell>
        <mxCell id="vk6pO8AkL0Hi04yZMvHO-905" value="&lt;span style=&quot;font-size: 13px&quot;&gt;谁是世界上最好的语言&lt;br&gt;&lt;/span&gt;&lt;span style=&quot;font-size: 13px&quot;&gt;谁是世界上最好的操作系统&lt;/span&gt;&lt;span style=&quot;font-size: 13px&quot;&gt;&lt;br&gt;&lt;/span&gt;" style="rounded=1;whiteSpace=wrap;html=1;shadow=1;glass=0;comic=0;strokeColor=#36393d;fillColor=#FFFF99;" vertex="1" parent="1">
          <mxGeometry x="749.62" y="5230" width="197.47" height="80" as="geometry" />
        </mxCell>
        <mxCell id="vk6pO8AkL0Hi04yZMvHO-910" value="" style="endArrow=classic;html=1;strokeColor=#000000;strokeWidth=1;fontColor=#000000;entryX=0.5;entryY=0;entryDx=0;entryDy=0;exitX=0.552;exitY=1.17;exitDx=0;exitDy=0;exitPerimeter=0;" edge="1" parent="1" target="vk6pO8AkL0Hi04yZMvHO-903" source="vk6pO8AkL0Hi04yZMvHO-911">
          <mxGeometry width="50" height="50" relative="1" as="geometry">
            <mxPoint x="849.9999999999999" y="4863" as="sourcePoint" />
            <mxPoint x="896.9999999999999" y="4933" as="targetPoint" />
          </mxGeometry>
        </mxCell>
        <mxCell id="vk6pO8AkL0Hi04yZMvHO-911" value="&lt;font style=&quot;font-size: 16px&quot;&gt;&lt;b&gt;feature_0.2分支&lt;/b&gt;&lt;/font&gt;" style="text;html=1;align=center;verticalAlign=middle;resizable=0;points=[];autosize=1;fontColor=#000000;strokeWidth=6;" vertex="1" parent="1">
          <mxGeometry x="777.18" y="4773" width="130" height="20" as="geometry" />
        </mxCell>
        <mxCell id="vk6pO8AkL0Hi04yZMvHO-913" value="" style="endArrow=classic;html=1;strokeColor=#000000;strokeWidth=1;fontColor=#000000;exitX=1;exitY=0.75;exitDx=0;exitDy=0;entryX=0;entryY=0.5;entryDx=0;entryDy=0;" edge="1" parent="1" source="vk6pO8AkL0Hi04yZMvHO-869" target="vk6pO8AkL0Hi04yZMvHO-903">
          <mxGeometry width="50" height="50" relative="1" as="geometry">
            <mxPoint x="300" y="5090" as="sourcePoint" />
            <mxPoint x="350" y="5040" as="targetPoint" />
          </mxGeometry>
        </mxCell>
        <mxCell id="vk6pO8AkL0Hi04yZMvHO-914" value="" style="endArrow=classic;html=1;strokeColor=#000000;strokeWidth=1;fontColor=#000000;exitX=0;exitY=1;exitDx=0;exitDy=0;entryX=1;entryY=0.5;entryDx=0;entryDy=0;" edge="1" parent="1" source="vk6pO8AkL0Hi04yZMvHO-798" target="vk6pO8AkL0Hi04yZMvHO-814">
          <mxGeometry width="50" height="50" relative="1" as="geometry">
            <mxPoint x="520" y="3380" as="sourcePoint" />
            <mxPoint x="570" y="3330" as="targetPoint" />
          </mxGeometry>
        </mxCell>
        <mxCell id="vk6pO8AkL0Hi04yZMvHO-916" value="" style="endArrow=classic;html=1;strokeColor=#000000;strokeWidth=1;fontColor=#000000;entryX=0;entryY=0.5;entryDx=0;entryDy=0;exitX=1;exitY=0.5;exitDx=0;exitDy=0;" edge="1" parent="1" source="vk6pO8AkL0Hi04yZMvHO-850" target="vk6pO8AkL0Hi04yZMvHO-839">
          <mxGeometry width="50" height="50" relative="1" as="geometry">
            <mxPoint x="10" y="4360" as="sourcePoint" />
            <mxPoint x="60" y="4310" as="targetPoint" />
          </mxGeometry>
        </mxCell>
        <mxCell id="vk6pO8AkL0Hi04yZMvHO-917" value="&lt;b style=&quot;background-color: rgb(255 , 0 , 0)&quot;&gt;&lt;font color=&quot;#ffff00&quot;&gt;最终效果&lt;/font&gt;&lt;/b&gt;&lt;br&gt;&lt;span style=&quot;font-size: 13px&quot;&gt;谁是世界上最好的语言&lt;/span&gt;&lt;span style=&quot;font-size: 13px&quot;&gt;&lt;br&gt;谁是世界上最好的操作系统&lt;br&gt;LINUX是世界上最好的操作系统&lt;br&gt;&lt;/span&gt;" style="rounded=1;whiteSpace=wrap;html=1;shadow=1;glass=0;comic=0;strokeColor=#000000;fillColor=#ffffff;" vertex="1" parent="1">
          <mxGeometry x="730" y="4640" width="250" height="100" as="geometry" />
        </mxCell>
        <mxCell id="vk6pO8AkL0Hi04yZMvHO-923" style="edgeStyle=orthogonalEdgeStyle;rounded=0;orthogonalLoop=1;jettySize=auto;html=1;exitX=0.5;exitY=1;exitDx=0;exitDy=0;strokeColor=#000000;strokeWidth=1;fontColor=#000000;" edge="1" parent="1" source="vk6pO8AkL0Hi04yZMvHO-921" target="vk6pO8AkL0Hi04yZMvHO-922">
          <mxGeometry relative="1" as="geometry" />
        </mxCell>
        <mxCell id="vk6pO8AkL0Hi04yZMvHO-921" value="&lt;span style=&quot;font-size: 13px&quot;&gt;谁是世界上最好的语言&lt;br&gt;&lt;/span&gt;&lt;span style=&quot;font-size: 13px&quot;&gt;谁是世界上最好的操作系统&lt;/span&gt;&lt;br style=&quot;font-size: 13px&quot;&gt;&lt;span style=&quot;font-size: 13px&quot;&gt;LINUX是世界上最好的操作系统&lt;/span&gt;&lt;span style=&quot;font-size: 13px&quot;&gt;&lt;br&gt;&lt;/span&gt;" style="rounded=1;whiteSpace=wrap;html=1;shadow=1;glass=0;comic=0;strokeColor=#36393d;fillColor=#FFFF99;" vertex="1" parent="1">
          <mxGeometry x="749.62" y="5640" width="197.47" height="80" as="geometry" />
        </mxCell>
        <mxCell id="vk6pO8AkL0Hi04yZMvHO-922" value="&lt;span style=&quot;font-size: 13px&quot;&gt;谁是世界上最好的语言&lt;br&gt;&lt;/span&gt;&lt;span style=&quot;font-size: 13px&quot;&gt;谁是世界上最好的操作系统&lt;/span&gt;&lt;br style=&quot;font-size: 13px&quot;&gt;&lt;span style=&quot;font-size: 13px&quot;&gt;LINUX是世界上最好的操作系统&lt;/span&gt;&lt;span style=&quot;font-size: 13px&quot;&gt;&lt;br&gt;&lt;/span&gt;" style="rounded=1;whiteSpace=wrap;html=1;shadow=1;glass=0;comic=0;strokeColor=#36393d;fillColor=#FFFF99;" vertex="1" parent="1">
          <mxGeometry x="749.6200000000001" y="5890" width="197.47" height="80" as="geometry" />
        </mxCell>
        <mxCell id="vk6pO8AkL0Hi04yZMvHO-929" style="edgeStyle=orthogonalEdgeStyle;rounded=0;orthogonalLoop=1;jettySize=auto;html=1;strokeColor=#000000;strokeWidth=1;fontColor=#000000;" edge="1" parent="1" source="vk6pO8AkL0Hi04yZMvHO-925" target="vk6pO8AkL0Hi04yZMvHO-884">
          <mxGeometry relative="1" as="geometry" />
        </mxCell>
        <mxCell id="vk6pO8AkL0Hi04yZMvHO-925" value="&lt;span style=&quot;font-size: 13px&quot;&gt;谁是世界上最好的语言&lt;/span&gt;&lt;br style=&quot;font-size: 13px&quot;&gt;&lt;span style=&quot;font-size: 13px&quot;&gt;PHP是世界上&lt;br&gt;&lt;/span&gt;&lt;span style=&quot;font-size: 13px&quot;&gt;谁是世界上最好的操作系统&lt;/span&gt;&lt;span style=&quot;font-size: 13px&quot;&gt;&lt;br&gt;&lt;/span&gt;" style="rounded=1;whiteSpace=wrap;html=1;shadow=1;glass=0;comic=0;strokeColor=#000000;fillColor=#CCFFCC;" vertex="1" parent="1">
          <mxGeometry x="157.53" y="5520" width="161.65" height="70" as="geometry" />
        </mxCell>
        <mxCell id="vk6pO8AkL0Hi04yZMvHO-931" value="" style="endArrow=classic;html=1;strokeColor=#000000;strokeWidth=1;fontColor=#000000;exitX=0;exitY=1;exitDx=0;exitDy=0;entryX=1;entryY=0.5;entryDx=0;entryDy=0;" edge="1" parent="1" source="vk6pO8AkL0Hi04yZMvHO-876" target="vk6pO8AkL0Hi04yZMvHO-886">
          <mxGeometry width="50" height="50" relative="1" as="geometry">
            <mxPoint x="250" y="6010" as="sourcePoint" />
            <mxPoint x="300" y="5960" as="targetPoint" />
          </mxGeometry>
        </mxCell>
        <mxCell id="vk6pO8AkL0Hi04yZMvHO-933" value="&lt;span style=&quot;font-size: 13px&quot;&gt;谁是世界上最好的语言&lt;/span&gt;&lt;br style=&quot;font-size: 13px&quot;&gt;&lt;span style=&quot;font-size: 13px&quot;&gt;PHP是世界上最好的语言&lt;/span&gt;&lt;span style=&quot;font-size: 13px&quot;&gt;&lt;br&gt;&lt;/span&gt;&lt;span style=&quot;font-size: 13px&quot;&gt;谁是世界上最好的操作系统&lt;br&gt;&lt;/span&gt;&lt;span style=&quot;font-size: 13px&quot;&gt;LINUX是世界上最好的操作系统&lt;/span&gt;&lt;span style=&quot;font-size: 13px&quot;&gt;&lt;br&gt;&lt;/span&gt;" style="rounded=1;whiteSpace=wrap;html=1;shadow=1;glass=0;comic=0;strokeColor=#000000;fillColor=#CCFFCC;" vertex="1" parent="1">
          <mxGeometry x="143.35999999999999" y="6050" width="191.65" height="80" as="geometry" />
        </mxCell>
        <mxCell id="vk6pO8AkL0Hi04yZMvHO-934" value="" style="endArrow=classic;html=1;strokeColor=#000000;strokeWidth=1;fontColor=#000000;exitX=0;exitY=0.5;exitDx=0;exitDy=0;entryX=1;entryY=0.5;entryDx=0;entryDy=0;" edge="1" parent="1" source="vk6pO8AkL0Hi04yZMvHO-922" target="vk6pO8AkL0Hi04yZMvHO-933">
          <mxGeometry width="50" height="50" relative="1" as="geometry">
            <mxPoint x="490" y="6140" as="sourcePoint" />
            <mxPoint x="540" y="6090" as="targetPoint" />
          </mxGeometry>
        </mxCell>
        <mxCell id="vk6pO8AkL0Hi04yZMvHO-937" value="&lt;span style=&quot;font-size: 13px&quot;&gt;谁是世界上最好的语言&lt;/span&gt;&lt;br style=&quot;font-size: 13px&quot;&gt;&lt;span style=&quot;font-size: 13px&quot;&gt;PHP是世界上最好的语言&lt;/span&gt;&lt;span style=&quot;font-size: 13px&quot;&gt;&lt;br&gt;&lt;/span&gt;&lt;span style=&quot;font-size: 13px&quot;&gt;谁是世界上最好的操作系统&lt;br&gt;&lt;/span&gt;&lt;span style=&quot;font-size: 13px&quot;&gt;LINUX是世界上最好的操作系统&lt;/span&gt;&lt;span style=&quot;font-size: 13px&quot;&gt;&lt;br&gt;&lt;/span&gt;" style="rounded=1;whiteSpace=wrap;html=1;shadow=1;glass=0;comic=0;strokeColor=#000000;fillColor=#CCFFFF;" vertex="1" parent="1">
          <mxGeometry x="-282.5" y="6360" width="188.33" height="80" as="geometry" />
        </mxCell>
        <mxCell id="vk6pO8AkL0Hi04yZMvHO-939" value="" style="endArrow=classic;html=1;strokeColor=#000000;strokeWidth=1;fontColor=#000000;exitX=0;exitY=1;exitDx=0;exitDy=0;entryX=1;entryY=0.5;entryDx=0;entryDy=0;" edge="1" parent="1" source="vk6pO8AkL0Hi04yZMvHO-922" target="vk6pO8AkL0Hi04yZMvHO-937">
          <mxGeometry width="50" height="50" relative="1" as="geometry">
            <mxPoint x="470" y="6380" as="sourcePoint" />
            <mxPoint x="520" y="6330" as="targetPoint" />
          </mxGeometry>
        </mxCell>
        <mxCell id="vk6pO8AkL0Hi04yZMvHO-942" value="&lt;b style=&quot;background-color: rgb(255 , 0 , 0)&quot;&gt;&lt;font color=&quot;#ffff00&quot;&gt;最终效果&lt;/font&gt;&lt;/b&gt;&lt;br&gt;&lt;span style=&quot;font-size: 13px&quot;&gt;谁是世界上最好的语言?&lt;/span&gt;&lt;br style=&quot;font-size: 13px&quot;&gt;&lt;span style=&quot;font-size: 13px&quot;&gt;PHP是世界上最好的语言&lt;/span&gt;" style="rounded=1;whiteSpace=wrap;html=1;shadow=1;glass=0;comic=0;strokeColor=#000000;fillColor=#ffffff;" vertex="1" parent="1">
          <mxGeometry x="-313.33000000000004" y="3540" width="250" height="100" as="geometry" />
        </mxCell>
        <mxCell id="vk6pO8AkL0Hi04yZMvHO-943" value="&lt;b style=&quot;background-color: rgb(255 , 0 , 0)&quot;&gt;&lt;font color=&quot;#ffff00&quot;&gt;最终效果&lt;/font&gt;&lt;/b&gt;&lt;br&gt;&lt;span style=&quot;font-size: 13px&quot;&gt;谁是世界上最好的语言&lt;/span&gt;&lt;br style=&quot;font-size: 13px&quot;&gt;&lt;span style=&quot;font-size: 13px&quot;&gt;PHP是世界上最好的语言&lt;/span&gt;" style="rounded=1;whiteSpace=wrap;html=1;shadow=1;glass=0;comic=0;strokeColor=#000000;fillColor=#ffffff;" vertex="1" parent="1">
          <mxGeometry x="-330" y="2410" width="250" height="100" as="geometry" />
        </mxCell>
        <mxCell id="vk6pO8AkL0Hi04yZMvHO-944" value="&lt;b style=&quot;background-color: rgb(255 , 0 , 0)&quot;&gt;&lt;font color=&quot;#ffff00&quot;&gt;最终效果&lt;/font&gt;&lt;/b&gt;&lt;br&gt;&lt;span style=&quot;font-size: 13px&quot;&gt;谁是世界上最好的语言&lt;/span&gt;&lt;br style=&quot;font-size: 13px&quot;&gt;&lt;span style=&quot;font-size: 13px&quot;&gt;PHP是世界上最好的语言&lt;/span&gt;" style="rounded=1;whiteSpace=wrap;html=1;shadow=1;glass=0;comic=0;strokeColor=#000000;fillColor=#ffffff;" vertex="1" parent="1">
          <mxGeometry x="-30" y="2410" width="250" height="100" as="geometry" />
        </mxCell>
        <mxCell id="vk6pO8AkL0Hi04yZMvHO-945" value="&lt;b style=&quot;background-color: rgb(255 , 0 , 0)&quot;&gt;&lt;font color=&quot;#ffff00&quot;&gt;最终效果&lt;/font&gt;&lt;/b&gt;&lt;br&gt;&lt;span style=&quot;font-size: 13px&quot;&gt;谁是世界上最好的语言?&lt;/span&gt;&lt;br style=&quot;font-size: 13px&quot;&gt;&lt;span style=&quot;font-size: 13px&quot;&gt;PHP是世界上最好的语言&lt;/span&gt;" style="rounded=1;whiteSpace=wrap;html=1;shadow=1;glass=0;comic=0;strokeColor=#000000;fillColor=#ffffff;" vertex="1" parent="1">
          <mxGeometry x="270" y="3540" width="250" height="100" as="geometry" />
        </mxCell>
        <mxCell id="vk6pO8AkL0Hi04yZMvHO-946" value="&lt;b style=&quot;background-color: rgb(255 , 0 , 0)&quot;&gt;&lt;font color=&quot;#ffff00&quot;&gt;最终效果&lt;/font&gt;&lt;/b&gt;&lt;br&gt;&lt;span style=&quot;font-size: 13px&quot;&gt;谁是世界上最好的语言?&lt;/span&gt;" style="rounded=1;whiteSpace=wrap;html=1;shadow=1;glass=0;comic=0;strokeColor=#000000;fillColor=#ffffff;" vertex="1" parent="1">
          <mxGeometry x="-19.999999999999996" y="3540" width="250" height="100" as="geometry" />
        </mxCell>
        <mxCell id="vk6pO8AkL0Hi04yZMvHO-947" value="&lt;b style=&quot;background-color: rgb(255 , 0 , 0)&quot;&gt;&lt;font color=&quot;#ffff00&quot;&gt;最终效果&lt;/font&gt;&lt;/b&gt;&lt;br&gt;&lt;span style=&quot;font-size: 13px&quot;&gt;谁是世界上最好的语言&lt;/span&gt;&lt;br style=&quot;font-size: 13px&quot;&gt;&lt;span style=&quot;font-size: 13px&quot;&gt;PHP是世界上最好的语言&lt;/span&gt;&lt;span style=&quot;font-size: 13px&quot;&gt;&lt;br&gt;&lt;/span&gt;&lt;span style=&quot;font-size: 13px&quot;&gt;谁是世界上最好的操作系统&lt;br&gt;&lt;/span&gt;&lt;span style=&quot;font-size: 13px&quot;&gt;LINUX是世界上最好的操作系统&lt;/span&gt;&lt;span style=&quot;font-size: 13px&quot;&gt;&lt;br&gt;&lt;/span&gt;" style="rounded=1;whiteSpace=wrap;html=1;shadow=1;glass=0;comic=0;strokeColor=#000000;fillColor=#ffffff;" vertex="1" parent="1">
          <mxGeometry x="110" y="4640" width="250" height="100" as="geometry" />
        </mxCell>
        <mxCell id="vk6pO8AkL0Hi04yZMvHO-948" value="&lt;b style=&quot;background-color: rgb(255 , 0 , 0)&quot;&gt;&lt;font color=&quot;#ffff00&quot;&gt;最终效果&lt;/font&gt;&lt;/b&gt;&lt;br&gt;&lt;span style=&quot;font-size: 13px&quot;&gt;谁是世界上最好的语言&lt;/span&gt;&lt;br style=&quot;font-size: 13px&quot;&gt;&lt;span style=&quot;font-size: 13px&quot;&gt;PHP是世界上最好的语言&lt;/span&gt;&lt;span style=&quot;font-size: 13px&quot;&gt;&lt;br&gt;&lt;/span&gt;&lt;span style=&quot;font-size: 13px&quot;&gt;谁是世界上最好的操作系统&lt;br&gt;&lt;/span&gt;&lt;span style=&quot;font-size: 13px&quot;&gt;LINUX是世界上最好的操作系统&lt;/span&gt;&lt;span style=&quot;font-size: 13px&quot;&gt;&lt;br&gt;&lt;/span&gt;" style="rounded=1;whiteSpace=wrap;html=1;shadow=1;glass=0;comic=0;strokeColor=#000000;fillColor=#ffffff;" vertex="1" parent="1">
          <mxGeometry x="-321.67999999999995" y="4640" width="250" height="100" as="geometry" />
        </mxCell>
      </root>
    </mxGraphModel>
  </diagram>
</mxfile>
